<svg id="player" version="1.1" viewBox="0 0 1024 768" xmlns="http://www.w3.org/2000/svg">
  <defs>
    <clipPath id="circular">
      <circle cx="512" cy="384" r="240"/>
    </clipPath>
  </defs>
  <g id="player-ui">
    <g id="player-ear-left">
      <path id="skip-back-button" d="m120.9 319.3c-0.245 0.941 0.078 1.504 0.999 1.747 0.98 0.257 1.359-0.029 1.359-1.026 0-1.874 3.343-1.915 3.932-0.049 0.232 0.734 1.228 1.769 2.214 2.3 0.986 0.53 1.792 1.551 1.792 2.268 0 0.716 0.459 2.702 1.02 4.412 1.03 3.138 1.835 7.513 2.241 12.18 0.12 1.397 0.393 3.519 0.603 4.716 0.211 1.198 0.578 4.79 0.817 7.983s0.575 6.621 0.748 7.619c0.174 0.998 0.496 3.937 0.719 6.531s0.728 7.003 1.123 9.797c0.394 2.793 0.862 6.712 1.041 8.708 0.178 1.995 0.524 4.874 0.769 6.398 2.238 13.95 3.43 46.31 1.763 47.86-0.752 0.701-0.845 0.697-0.443-0.021 0.28-0.499 0.203-0.907-0.174-0.907-0.376 0-0.893 1.061-1.148 2.359-0.643 3.272-2.925 6.273-2.38 3.13 0.491-2.83-0.325-5.136-0.92-2.602-0.334 1.419-0.939 1.839-2.879 1.998-1.351 0.11-2.718 0.607-3.038 1.104-0.319 0.498-0.373-0.238-0.118-1.635l0.461-2.54-3.09 3.488v-1.882c0-1.036-0.325-2.085-0.722-2.331-0.397-0.247-0.721 0.115-0.721 0.803 0 0.689-0.203 1.049-0.45 0.8-0.248-0.249-0.201-1.038 0.104-1.753 0.767-1.803 0.416-6.349-0.619-8.014-0.31-0.499-0.376-1.211-0.147-1.583 0.228-0.371 0.086-0.88-0.318-1.131s-0.734-0.946-0.734-1.544c0-0.678 0.341-0.883 0.902-0.544 0.72 0.435 0.721 0.32 0-0.568-0.492-0.612-0.682-1.328-0.421-1.591 0.262-0.262 0.107-0.477-0.344-0.477-0.45 0-0.642-0.464-0.425-1.032 0.216-0.567-0.021-1.792-0.513-2.721-0.499-0.929-0.839-2.751-0.755-4.048s-0.143-2.358-0.504-2.358-0.615-1.602-0.564-3.56-0.151-3.408-0.449-3.223c-0.297 0.186-0.541-0.319-0.541-1.121s0.568-1.825 1.263-2.275c1.093-0.706 1.101-0.766 0.055-0.443-1.605 0.497-2.641-4.829-1.264-6.498 0.745-0.902 0.725-1.063-0.113-0.882-0.563 0.123-1.067-0.267-1.121-0.866-0.053-0.598-0.158-1.252-0.232-1.451-0.074-0.2-0.266-1.669-0.427-3.266-0.161-1.596-0.499-4.372-0.752-6.168s-0.556-4.082-0.675-5.079c-0.118-0.998-0.551-3.937-0.961-6.531-0.41-2.595-0.94-7.003-1.176-9.797-1.128-13.32-1.906-18.05-3.285-20-0.779-1.099-1.416-2.541-1.416-3.204 0-0.664-0.356-1.876-0.791-2.694-2.035-3.823-0.895-16.99 1.178-13.61 0.687 1.117 1.752-0.549 1.767-2.764 0-0.898 0.255-1.674 0.553-1.725 0.297-0.051 1.293-0.171 2.213-0.266 0.919-0.096 2.04-0.544 2.49-0.996 1.339-1.347 2.906-0.992 2.501 0.566zm4.222 1.981c-1.694 0 0.199 2.319 1.051 0.964 0.853-1.357 0.871-2.156 0.049-2.156-0.355 0-0.398 1.192-1.1 1.192zm101.9 125.2c0.139-0.72 0.566-1.314 0.951-1.32 1.026-0.016 2.477-1.049 2.477-1.762 0-0.34-0.995-0.118-2.21 0.491-1.862 0.934-2.308 0.954-2.831 0.124-0.341-0.542-0.625-0.651-0.631-0.244 0 0.408-0.65 0.789-1.431 0.849-0.83 0.062-1.421-0.333-1.421-0.951 0-0.591 0.516-0.966 1.17-0.849 1.753 0.315 1.971-1.364 0.294-2.266-0.805-0.434-1.469-1.339-1.475-2.013 0-0.96-0.143-1.015-0.621-0.255-0.837 1.328-3.127 0.478-3.991-1.481-0.415-0.94-3.196-2.924-6.766-4.828-3.334-1.777-6.85-3.75-7.813-4.383-2.715-1.784-9.701-5.828-15.96-9.237-3.125-1.703-7.121-4.083-8.879-5.289-1.758-1.205-4.011-2.611-5.007-3.122-7.128-3.662-20.32-15.78-19.28-17.72 0.601-1.128 0.541-1.817-0.256-2.96-1.087-1.561-1.063-1.677 1.637-7.927 0.872-2.021 0.885-2.522 0.078-3.103-0.746-0.535-0.694-0.606 0.228-0.31 0.79 0.254 1.818-0.445 3.055-2.075 1.025-1.352 1.528-2.457 1.117-2.457-0.41 0-0.746-0.356-0.746-0.791s0.479-0.606 1.065-0.38c0.663 0.256 1.066-6e-3 1.066-0.689 0-1.282 1.251-2.663 3.025-3.339 0.687-0.262 1.167-0.858 1.066-1.325s0.614-1.06 1.591-1.317c1.145-0.302 1.702-0.895 1.567-1.671-0.115-0.661 0.093-1.202 0.462-1.202 0.368 0 1.789-1.125 3.156-2.5 1.368-1.375 2.998-2.5 3.623-2.5s1.136-0.487 1.136-1.083c0-0.595 1.199-1.64 2.664-2.321s2.919-1.64 3.232-2.131c0.312-0.491 1.015-0.893 1.561-0.893 0.547 0 1.856-0.804 2.91-1.786s2.349-1.785 2.878-1.785 0.962-0.323 0.962-0.717 1.278-1.273 2.841-1.954c1.562-0.681 2.841-1.62 2.841-2.088 0-0.767 1.29-1.615 6.209-4.084 0.876-0.44 1.596-1.034 1.599-1.321 0-0.286 1.23-1.149 2.727-1.917s3.495-2.216 4.44-3.217c0.944-1.001 2.037-1.83 2.427-1.843 0.391-0.013 1.787-0.978 3.104-2.145 1.316-1.167 2.674-1.946 3.018-1.732 0.345 0.214 0.626-0.119 0.626-0.74s0.879-1.485 1.954-1.921c1.074-0.436 2.912-1.198 4.084-1.694 9.815-4.154 13.63-5.024 14.19-3.235 0.266 0.843 0.846 1.237 1.469 0.996 0.566-0.218 1.029-0.063 1.029 0.346 0 0.408 0.714 0.97 1.587 1.249l1.586 0.506-1.689 0.629c-1.818 0.676-1.674 1.305 0.366 1.606 2.054 0.303 1.85 1.401-0.512 2.753-1.781 1.019-2.043 1.456-1.366 2.275 0.608 0.737 0.629 1.405 0.078 2.442-1.082 2.033-0.943 2.805 0.483 2.691 2.476-0.197 1.854 2.729-0.857 4.028-1.384 0.664-2.516 1.66-2.516 2.213 0 0.554-0.516 1.206-1.146 1.449-0.886 0.342-0.961 0.665-0.33 1.43 0.449 0.543 0.724 1.423 0.613 1.955-0.111 0.533 0.251 0.87 0.805 0.749 0.811-0.176 0.838-0.012 0.139 0.836-0.704 0.852-0.625 1.197 0.413 1.804 0.932 0.545 1.001 0.756 0.252 0.772-0.761 0.016-0.822 0.23-0.233 0.823 0.438 0.44 0.628 1.244 0.421 1.785-0.206 0.542 0.021 0.985 0.498 0.985 0.686 0 0.684 0.229-0.02 1.071-0.487 0.589-0.596 1.071-0.243 1.071 0.966 0 2.297 4.068 1.87 5.711-0.206 0.791-2e-3 1.891 0.454 2.443 0.626 0.759 0.628 1.129 0 1.514-0.565 0.351-0.586 0.656-0.068 0.978 0.414 0.258 0.848 2.145 0.964 4.193 0.116 2.049 0.37 3.727 0.566 3.73 0.195 0 0.355 2.765 0.355 6.14s0.242 6.288 0.538 6.473 0.516 2.003 0.49 4.041c-0.027 2.037 0.114 6.596 0.316 10.13 0.325 5.712 1.202 25.83 1.417 32.5 0.068 2.156-0.139 2.492-1.518 2.443-0.924-0.033-1.598 0.366-1.598 0.944 0 0.55-0.451 1.454-1.003 2.008-0.551 0.554-1.15 1.415-1.331 1.913-0.257 0.705-0.531 0.716-1.234 0.051-0.709-0.671-1.569-0.394-3.995 1.284-1.701 1.177-3.092 1.951-3.092 1.72 0-0.23-0.7 0.236-1.555 1.037s-1.814 1.457-2.131 1.457c-1.133 0-1.66 0.15-2.948 0.844-1.069 0.575-1.261 0.465-1.056-0.606zm-1.465-43.56c-0.078-4.235-0.276-9.316-0.439-11.29-0.163-1.976-0.486-7.595-0.716-12.49-0.231-4.892-0.57-10.36-0.754-12.14-0.291-2.826-0.905-10.09-0.984-11.64-0.069-1.346-5.462 1.794-12.88 7.5-1.404 1.08-2.8 1.963-3.101 1.963-0.302 0-2.072 1.125-3.935 2.5s-3.669 2.5-4.013 2.5c-0.345 0-4.137 2.434-8.429 5.409-4.291 2.974-8.836 6.108-10.1 6.964-3.109 2.103-2.126 3.472 4.785 6.661 0.586 0.27 2.344 1.356 3.907 2.412 4.144 2.802 13.15 7.838 14.01 7.838 0.408 0 1.48 0.801 2.382 1.779 0.988 1.072 2.078 1.609 2.745 1.352 0.608-0.235 1.106-0.145 1.106 0.2s1.438 1.418 3.196 2.383c1.758 0.966 3.196 2.004 3.196 2.307 0 0.302 0.491 0.55 1.091 0.55 1.542 0 4.656 2.174 4.194 2.927-0.213 0.345 0.068 0.453 0.624 0.238 0.568-0.219 1.218 0.153 1.484 0.849 1.398 3.665 2.776-0.928 2.631-8.772zm-1.5 43.37c0-1.198 1.26-1.494 1.679-0.396 0.247 0.649 0 1.068-0.636 1.068-0.573 0-1.043-0.303-1.043-0.672z" fill="#000000" stroke-width=".7123"/>
      <path id="ear-left-graphic" d="m165.1 493.4c-13.36-0.701-26.35-3.143-31.81-5.982-1.132-0.588-2.222-1.061-2.423-1.049-0.637 0.034-12.02-7.188-13.5-8.569-7.367-6.855-17.12-17.84-17.57-19.8-0.0705-0.303-1.335-2.155-2.811-4.117-2.869-3.812-14.07-25.76-14.07-27.56 0-0.596-0.2988-1.388-0.6636-1.761-0.6621-0.677-6.04-16.29-7.244-21.04-5.014-19.75-5.816-56.19-1.375-62.5 0.2765-0.393 0.9397-2.161 1.474-3.929 6.191-20.49 24.24-40.06 50.25-54.5 3.222-1.789 6.579-3.475 7.458-3.746s1.943-0.768 2.364-1.105c0.422-0.337 1.38-0.732 2.131-0.877s1.844-0.448 2.43-0.673c1.249-0.479 7.388-2.325 9.945-2.99 8.517-2.215 40.01-3.211 47.59-1.506 0.977 0.22 3.535 0.534 5.685 0.697 4.048 0.308 15.27 2.702 20.24 4.317 1.563 0.509 4.12 1.308 5.683 1.776 1.562 0.469 3.48 1.119 4.262 1.445 0.781 0.327 3.178 1.302 5.327 2.169 7.952 3.206 19.24 9.077 20.6 10.71 0.195 0.235 1.412 1.17 2.704 2.078 1.292 0.907 2.179 1.822 1.971 2.031-0.209 0.21-0.801 0.094-1.318-0.256-0.516-0.351-0.437-0.156 0.176 0.434 1.55 1.49 4.468 5.714 3.948 5.714-0.236 0-1.217-0.52-2.18-1.154-2.109-1.39-2.224-1.043-0.367 1.111 1.64 1.901-1.441 5.76-3.337 4.179-1.136-0.947-1.166 0.297-0.036 1.435 0.63 0.633 0.637 0.857 0.028 0.857-0.453 0-1.624-0.869-2.603-1.93s-2.004-1.704-2.278-1.428c-0.274 0.275-0.125 0.501 0.33 0.501 0.456 0 0.829 0.321 0.829 0.714 0 1.18-1.277 0.81-2.772-0.803-0.773-0.835-2.234-1.518-3.246-1.518-1.084 0-2.139-0.56-2.565-1.362-0.399-0.749-1.108-1.288-1.576-1.197s-2.243-0.565-3.944-1.458-2.86-1.244-2.575-0.78c0.745 1.211-2.626 0.122-3.653-1.18-0.48-0.609-1.307-0.816-2.077-0.518-0.995 0.384-1.177 0.228-0.823-0.702 0.304-0.796 0.095-1.196-0.629-1.196-0.596 0-0.887 0.322-0.646 0.715 0.566 0.92-0.09 0.907-1.842-0.036-0.767-0.413-1.225-1.026-1.018-1.362 0.207-0.337-0.264-0.444-1.045-0.238-0.908 0.238-1.426 0.021-1.433-0.602 0-0.762-0.163-0.741-0.699 0.095-0.436 0.677-0.693 0.751-0.7 0.201 0-0.517-0.49-0.685-1.193-0.414-0.789 0.304-1.013 0.181-0.673-0.372 0.325-0.528 0.135-0.684-0.522-0.43-0.567 0.219-1.245 0.049-1.507-0.377-0.261-0.426-0.766-0.594-1.12-0.373-1.168 0.725-6.448-1.084-5.89-2.018 0.282-0.473-0.089-0.378-0.822 0.212-1.196 0.959-1.291 0.953-0.915-0.06 0.255-0.685 0.039-1.131-0.546-1.131-0.531 0-0.794 0.281-0.583 0.624 0.401 0.653-0.372 0.514-8.792-1.579-2.832-0.704-5.154-1.072-5.16-0.817 0 0.254-0.321-0.02-0.7-0.609-0.459-0.714-0.692-0.773-0.699-0.178 0 0.491-0.491 0.893-1.077 0.893s-1.065-0.302-1.065-0.67c0-0.371-1.155-0.481-2.597-0.245-1.866 0.304-2.453 0.191-2.088-0.402 0.304-0.495 0.046-0.826-0.642-0.826-0.632 0-0.952 0.321-0.711 0.714 0.257 0.418-0.48 0.714-1.775 0.714-1.219 0-2.068-0.241-1.888-0.535 0.179-0.295-0.59-0.57-1.712-0.611s-1.87 0.2-1.664 0.536 0.036 0.61-0.377 0.61c-0.414 0-0.752-0.321-0.752-0.714s-0.639-0.714-1.421-0.714c-0.781 0-1.42 0.279-1.42 0.62 0 0.627-3.867 0.424-4.968-0.26-0.326-0.203-0.744 0.035-0.928 0.528-0.233 0.625-0.675 0.464-1.459-0.531-0.618-0.786-1.134-1.052-1.146-0.592-0.021 0.459-0.977 1.046-2.142 1.304-2.402 0.53-3.313 0.319-2.978-0.692 0.127-0.382-0.417-0.105-1.208 0.614-1.028 0.936-2.239 1.232-4.254 1.038-1.554-0.149-2.641 0.018-2.423 0.372 0.217 0.352-0.05 0.48-0.593 0.284-0.542-0.196-2.025 0.067-3.295 0.585-1.748 0.714-2.311 0.734-2.319 0.086 0-0.648-0.141-0.652-0.54-0.02-0.291 0.46-1.452 1.069-2.581 1.354-1.59 0.401-1.924 0.308-1.481-0.411 0.379-0.617 0.292-0.755-0.261-0.412-0.458 0.284-0.684 0.758-0.503 1.052 0.449 0.731-4.377 2.426-5.291 1.858-0.403-0.25-0.644-0.03-0.537 0.491 0.123 0.595-0.52 0.958-1.732 0.978-1.059 0.019-2.178 0.311-2.486 0.651-0.312 0.344-0.088 0.358 0.506 0.031 0.633-0.348 0.825-0.322 0.474 0.064-0.588 0.646-0.913 0.747-2.96 0.918-0.586 0.05-1.065 0.537-1.065 1.085 0 0.547-0.496 1.186-1.102 1.42-0.702 0.271-0.924 0.135-0.612-0.374 0.298-0.485 0.103-0.657-0.496-0.438-0.543 0.198-0.894 0.762-0.78 1.252 0.127 0.552-0.224 0.725-0.925 0.454-0.652-0.251-0.948-0.138-0.699 0.267 0.238 0.387-0.465 1.102-1.561 1.59-1.097 0.489-2.434 1.312-2.973 1.83s-1.386 0.785-1.883 0.594c-0.498-0.192-1.074 0.304-1.282 1.102-0.216 0.832-0.713 1.242-1.166 0.96-1.147-0.712-2.849 0.969-2.337 2.309 0.324 0.851 0.132 1.026-0.753 0.684-0.779-0.3-1.189-0.097-1.189 0.59 0 0.577-0.479 1.049-1.065 1.049s-0.986 0.376-0.888 0.835-0.562 1.222-1.466 1.695c-0.903 0.474-1.616 1.069-1.583 1.322 0.032 0.254-0.633 1.179-1.48 2.055s-1.282 1.111-0.967 0.522c0.34-0.635 0.31-0.829-0.072-0.477-0.356 0.328-0.653 0.81-0.66 1.072-0.039 1.329-2.911 5.102-3.664 4.812-0.477-0.184-0.728 0.05-0.559 0.522 0.468 1.298-3.831 7.789-4.772 7.204-0.4718-0.293-0.6039-0.178-0.3222 0.28 0.5615 0.914-3.059 10.16-3.978 10.16-0.3443 0-0.4246 0.327-0.1792 0.728 0.2462 0.4 0.0765 1.862-0.3793 3.248-0.4551 1.386-0.9172 3.345-1.027 4.353-0.1108 1.008-0.5958 2.079-1.08 2.379-0.5433 0.338-0.599 0.648-0.145 0.812 0.4808 0.173 0.5245 1.372 0.1268 3.479-0.73 3.865-0.2887 25.75 0.5916 29.32 0.3435 1.393 0.3576 3.257 0.0323 4.143-0.3377 0.918-0.3232 1.445 0.0343 1.223 0.8724-0.542 1.467 1.306 0.9989 3.105-0.214 0.824-0.0826 1.497 0.2907 1.497 0.3741 0 1.087 1.848 1.584 4.107 0.4973 2.259 1.099 4.429 1.336 4.821 0.2376 0.393 0.5084 1.036 0.602 1.429 0.6524 2.74 3.875 11.4 4.545 12.21 0.451 0.547 0.6441 1.67 0.4293 2.497-0.2151 0.826-0.2117 1.322 0 1.102 0.219-0.22 2.357 3.524 4.751 8.322 4.879 9.777 9.9 17.63 14.23 22.24 1.596 1.702 4.302 4.593 6.012 6.425 6.199 6.637 17.96 13.23 23.66 13.26 1.051 6e-3 2.1 0.318 2.331 0.694 0.231 0.375 0.864 0.511 1.407 0.302 0.543-0.21 1.633-0.035 2.421 0.39 0.834 0.449 1.599 0.5 1.832 0.122 0.489-0.796 3.238-0.157 3.238 0.754 0 0.377 0.566 0.351 1.332-0.061 0.804-0.433 2.843-0.498 5.15-0.165 2.1 0.303 6.215 0.479 9.145 0.392 7.278-0.217 24.51-0.933 24.51-1.018 0-0.038 0.879-0.186 1.953-0.329 1.171-0.155 1.958 0.079 1.964 0.585 0 0.597 0.179 0.578 0.585-0.066 0.316-0.5 1.83-0.947 3.363-0.992 1.534-0.045 3.109-0.332 3.499-0.636 1.321-1.03 1.556-1.035 2.733-0.053 0.646 0.539 1.174 0.666 1.174 0.282s2.957-1.095 6.571-1.58c3.613-0.486 7.049-1.053 7.635-1.26 0.586-0.208 1.865-0.462 2.842-0.564 0.976-0.101 4.173-0.54 7.103-0.974s7.085-0.659 9.234-0.5c2.148 0.158 4.306 0.314 4.794 0.345 1.868 0.119 0.78 1.408-1.42 1.683l-2.309 0.288 2.506 0.114c2.579 0.118 4.92 1.999 4.408 3.542-0.157 0.472 0.222 0.858 0.84 0.858 1.619 0 1.386 1.249-0.335 1.798-0.803 0.256-1.337 0.837-1.186 1.291 0.305 0.921-2.02 2.97-4.566 4.024-1.26 0.522-0.887 0.582 1.529 0.243 8.977-1.257-5.15 4.838-15.98 6.895-11.22 2.129-25.28 4.396-29.12 4.692-16.47 1.27-30.3 1.575-42.47 0.936z"/>
      <path id="ear-left-clickzone" d="m282.5 469.5c-25.08-67.72-26.65-100.5-5.303-159.5-29.34-19.09-111.8-60.4-169.4-6.364-57.56 54.04-17.41 141.8 18.38 168.6 35.8 26.87 105.9 12.02 156.3-2.828z" fill="transparent"/>
    </g>
    <g id="player-ear-right">
      <path id="skip-forward-button" d="m796.4 441.6c-0.544-1.799-1.178-1.96-3.275-0.831-1.238 0.666-1.384 0.591-1.035-0.536 0.554-1.791-0.602-3.695-1.236-2.035-2.845 7.458-5.514-4.397-5.785-25.7-0.101-7.857-0.388-18.78-0.641-24.28-0.45-9.824-0.597-29.05-0.246-32.44 0.21-2.039 1.936-2.914 1.993-1.011 0.023 0.72 0.581 0.018 1.243-1.558 2.199-5.239 4.27-6.656 3.41-2.333-0.285 1.431-0.207 2.038 0.206 1.607 0.365-0.381 0.771-1.496 0.901-2.478 0.24-1.803 2.985-2.737 3.86-1.314 0.215 0.35-0.02 0.547-0.508 0.439-0.494-0.108-1.021 0.365-1.17 1.051-0.193 0.89 0.049 1.125 0.84 0.819 0.662-0.255 1.287 0.034 1.548 0.717 0.483 1.266 2.792 1.552 3.482 0.431 0.859-1.398 1.928-0.708 1.508 0.975-0.281 1.124 0.046 2.23 0.978 3.311 0.931 1.08 1.258 2.186 0.977 3.311-0.24 0.963-0.104 1.688 0.317 1.688 0.481 0 0.526 0.742 0.128 2.133-0.37 1.299-0.339 2.3 0.079 2.56 0.378 0.235 0.501 1.016 0.274 1.735-0.227 0.72-0.145 1.476 0.183 1.68s0.581 2.32 0.562 4.702c-0.021 2.383 0.209 4.332 0.508 4.332s0.53 0.884 0.513 1.964c-0.076 4.904 0.607 17.15 1.051 18.85 0.285 1.087 0.18 2.081-0.248 2.347-1.36 0.845 0.654 4.068 2.228 3.565 1.257-0.401 9.753-6.075 11.65-7.777 0.45-0.405 3.646-2.759 7.103-5.233s9.002-6.574 12.32-9.112 7.224-5.496 8.674-6.574c3.913-2.906 1.393-5.336-12.94-12.47-2.605-1.298-4.062-2.157-7.252-4.276-1.058-0.703-2.377-1.279-2.931-1.279s-1.379-0.449-1.832-0.998c-0.883-1.07-32.02-16.86-33.25-16.86-1.557 0-2.377-1.919-1.646-3.851 0.669-1.77 0.606-1.856-1.05-1.438-2.424 0.611-2.412-1.64 0.02-2.567 2.113-0.808 2.389-1.757 0.356-1.222-1.915 0.503-1.819-0.971 0.177-2.715 1.646-1.439 1.868-1.537 3.807-1.688 0.91-0.071 0.815-0.358-0.464-1.399-1.406-1.145-1.461-1.367-0.434-1.764 0.646-0.249 1.175-0.141 1.175 0.239s0.339 0.692 0.752 0.692c0.414 0 0.553-0.324 0.31-0.719-0.732-1.192 1.632-1.635 4.637-0.868 1.553 0.396 2.825 0.452 2.825 0.125 0-0.328 0.879-0.135 1.953 0.428 1.074 0.564 2.65 1.027 3.501 1.029 0.851 0 2.049 0.51 2.663 1.127 0.614 0.618 1.117 0.956 1.117 0.752s0.958-0.035 2.13 0.376c1.172 0.41 2.131 1.037 2.131 1.391s0.799 0.644 1.776 0.644 1.776 0.322 1.776 0.715c0 0.392 0.47 0.714 1.044 0.714 1.021 0 5.571 2.321 7.271 3.709 0.471 0.384 1.239 0.462 1.706 0.172 0.477-0.297 1.223-0.014 1.702 0.645 0.47 0.645 2.658 1.976 4.865 2.957 2.206 0.981 4.011 2.226 4.011 2.765 0 0.661 0.578 0.871 1.767 0.642 1.195-0.23 1.909 0.033 2.207 0.813 0.242 0.634 1.005 1.153 1.697 1.153s1.653 0.479 2.136 1.064c0.482 0.585 1.109 0.919 1.391 0.744 0.283-0.176 1.286 0.228 2.228 0.898 2.213 1.573 5.338 3.41 8.462 4.976 1.368 0.685 2.742 1.648 3.054 2.139 0.313 0.491 0.851 0.893 1.196 0.893 1.017 0 7.826 4.443 7.826 5.106 0 0.335 0.239 0.57 0.532 0.523 1.413-0.224 2.309 0.172 2.309 1.022 0 0.515 0.959 1.65 2.131 2.521s2.131 2.035 2.131 2.586 0.632 1.204 1.404 1.45c1.499 0.479 3.291 5.508 2.45 6.876-0.259 0.421-0.584 1.937-0.722 3.369-0.139 1.432-0.562 2.707-0.941 2.835-0.38 0.127-0.509 0.709-0.286 1.293 0.319 0.836 0.02 0.962-1.454 0.592-1.365-0.345-1.978-0.158-2.307 0.704-0.509 1.335-4.447 3.642-5.769 3.38-0.523-0.104-0.707 0.27-0.457 0.927 0.231 0.605 0.071 1.1-0.357 1.1-0.427 0-2.31 1.526-4.184 3.392s-4.792 4.518-6.486 5.893c-1.692 1.375-3.451 2.856-3.908 3.29-2.577 2.457-9.032 7.423-9.647 7.423-0.397 0-0.721 0.322-0.721 0.715s-0.463 0.714-1.03 0.714-1.286 0.404-1.598 0.897c-0.796 1.257-5.643 4.817-6.558 4.817-0.417 0-0.758 0.321-0.758 0.714s-0.335 0.714-0.744 0.714c-0.41 0-1.485 0.804-2.39 1.786s-1.929 1.786-2.275 1.786c-0.346 1e-3 -1.558 0.804-2.692 1.786-1.136 0.982-2.307 1.785-2.604 1.785-0.296 0-3.203 1.805-6.459 4.011-3.257 2.206-6.64 4.287-7.519 4.625-0.879 0.337-1.599 1.081-1.599 1.652 0 1.241-2.029 3.429-2.76 2.976-0.283-0.176-1.119 0.809-1.859 2.189-1.213 2.266-1.564 2.467-3.623 2.079-1.523-0.287-2.404-0.127-2.654 0.483-0.233 0.571-0.554 0.311-0.858-0.695zm106.1-14.96c0-0.458-0.479-0.833-1.065-0.833s-1.066-0.482-1.066-1.071 0.309-1.072 0.686-1.072c0.862 0 2.414 2.836 1.858 3.395-0.227 0.228-0.413 0.04-0.413-0.419zm1.336-2.365c-0.881-1.072-1.782-1.932-2.002-1.91-1.694 0.17-2.728-0.4-3.799-2.093l-1.244-1.964 0.422 1.867c0.463 2.056-1.205 3.358-2.359 1.84-0.93-1.223-3.876-9.517-4.186-11.78-1.493-10.92-1.635-95.84-0.159-95.84 0.345 0 0.627-0.509 0.627-1.131s0.4-0.99 0.888-0.819c0.488 0.172 1.262-0.364 1.718-1.19 0.7-1.267 1.498-1.503 5.082-1.503 2.338 0 3.951 0.187 3.585 0.415-1.525 0.948 0.169 2.735 1.948 2.055 1.619-0.62 1.68-0.561 0.915 0.877-0.667 1.252-0.602 1.7 0.348 2.399 0.682 0.501 0.983 1.341 0.724 2.02-0.261 0.685-0.084 1.162 0.43 1.162 0.669 0 0.679 0.235 0.046 1.002-0.635 0.77-0.614 1.088 0.091 1.372 0.741 0.3 0.739 0.381-0.021 0.427-0.561 0.034-0.71 0.41-0.375 0.949 0.893 1.439 0.988 3.285 0.195 3.778-0.494 0.306-0.458 0.792 0.109 1.477 0.463 0.562 0.928 2.703 1.032 4.758 0.105 2.055 0.373 4.838 0.595 6.185 0.241 1.459 0.054 2.885-0.466 3.529-0.709 0.882-0.685 0.97 0.129 0.476 0.772-0.468 0.909-0.255 0.6 0.934-0.22 0.846-0.111 1.72 0.245 1.94 0.38 0.237 0.353 0.951-0.066 1.74-0.853 1.602-0.917 2.357-0.16 1.886 0.305-0.189 0.508 0.515 0.451 1.565-0.056 1.05 0.077 2.222 0.297 2.604 0.219 0.382 0.498 4.721 0.619 9.642s0.383 9.39 0.583 9.931c0.199 0.541-0.042 1.486-0.537 2.101-0.496 0.615-0.57 0.92-0.166 0.677 0.482-0.289 0.778 1.935 0.861 6.47 0.179 9.846 0.863 21.17 1.594 26.43 0.345 2.488 0.434 5.031 0.197 5.652s-0.135 0.945 0.225 0.721 0.711 1.023 0.778 2.771c0.113 2.958 0.02 3.145-1.417 2.687-1.329-0.424-1.415-0.339-0.628 0.614 1.146 1.388-0.252 2.112-2.166 1.122-0.922-0.476-1.243-0.359-1.243 0.454 0 0.603 0.479 1.096 1.065 1.096 1.31 0 1.381 0.991 0.145 2.022-1.51 1.26-3.851 0.666-5.557-1.411zm-101.3-70.7c0-1.334 0.189-1.524 0.852-0.857 0.663 0.666 0.663 1.047 0 1.714-0.663 0.666-0.852 0.476-0.852-0.857zm-5.229-2.499c-0.634-1.662-0.591-1.787 0.612-1.787 1.195 0 1.33 0.616 0.443 2.024-0.479 0.76-0.693 0.712-1.055-0.237z" fill="#000000" stroke-width=".7123"/>
      <path id="ear-right" d="m860.8 268.6c-2.505 1.367-5.501 0.497-8.117 1.461-0.663-1.078-2.008-0.366-2.805 0.13-2.835 0.04-5.679 0.268-8.412 1.056-1.623 0.392-3.532 0.2-4.834 1.379-2.23 1.295-5.115 0.489-7.226 2.103-1.225 0.245-2.42 0.841-3.684 1.005-1.018-0.443-1.386 0.657-2.1 1.155-0.839 0.041-1.658-0.078-2.291 0.779-0.839 0.975-2.205 0.377-3.179 1.096-1.573 0.957-3.072 2.409-5.069 2.191-1.299-0.463-1.155 1.144-2.153 1.282-0.971-0.013-1.475 0.998-2.457 0.794-0.828-0.113-1.845 0.097-2.021 1.052-0.847 1.263-2.627 1.074-3.763 1.955-1.646 0.927-3.182 2.052-4.968 2.712-1.631 0.901-3.199 1.945-4.952 2.588-0.565 0.734-1.34 1.137-2.127 1.553-0.528 0.981-1.549 1.301-2.338 1.972-1.342 1.663-3.272 2.763-5.242 3.535-0.964 1.188-1.93 2.46-3.436 2.969-1.285 0.666-2.142 1.868-3.072 2.897-1.363 0.903-3.352 1.319-3.891 3.074-1.379 1.384-3.271 2.202-4.423 3.82-1.366 0.139-1.927 1.497-2.493 2.524-0.566 0.66-1.29 1.278-1.457 2.177-1.334 0.68-2.975 1.155-3.576 2.686-0.554 0.955-0.921 2.009-1.519 2.939 0.424 0.641 1.907 1.299 0.977 2.151-0.897 1.844-0.925 4.482 0.808 5.869 0.957 0.334 1.739-1.478 2.615-0.5 1.38 1.037 2.755-0.566 3.811-1.33 12.77-9.521 25.53-19.12 39.2-27.34 14.15-8.3 29.81-14.65 46.28-16 14.44-1.089 29.34 2.408 41.37 10.6 11.2 7.554 19.98 18.04 28.17 28.65 5.998 8.095 11.54 16.69 15.02 26.2 3.969 10.71 4.519 22.51 2.231 33.66-1.837 9.558-4.387 19.04-8.337 27.95-3.236 5.889-7.326 11.26-11.54 16.48-6.29 7.533-13.86 13.9-21.99 19.37-15.7 10.93-33.04 19.79-51.6 24.67-10.19 2.421-20.76 1.951-31.15 1.644-5.729-0.344-11.09-2.716-15.91-5.705-7.067-4.229-13.78-9.635-22.03-11.32-0.921-0.294-1.903 0.429-1.502 1.408 1e-3 1.121-1.28 1.062-2.062 1.031-1.124 0.241-2.364 1.658-3.45 0.567-0.552-0.664-1.754-1.027-2.135-3e-3 -0.406 0.867 1.04 1.762 0.479 2.467-0.935 0.033-1.471-1.649-2.49-0.944-0.504 0.973 0.223 2.129-0.105 3.182-0.415 2.24 1.434 4.031 2.735 5.609 2.497 3.118 5.437 5.912 8.927 7.897 3.382 1.878 6.481 4.225 9.741 6.308 2.322 1.699 4.9 3.037 7.455 4.32 1.498 0.168 2.625 1.21 3.909 1.852 1.194 0.577 2.549-0.401 3.631 0.485 1.119 0.787 2.367 1.748 3.82 1.283 0.912-0.192 2.04-0.592 2.709 0.29 0.904 0.39 1.912 0.596 2.836 0.866 1.218-0.14 2.577-0.928 3.689-0.027 4.499 1.813 9.329-0.358 13.96 0.513 2.378 0.284 4.737-0.552 7.099-0.115 1.449-0.237 2.862-0.778 4.364-0.773 2.534 0.016 4.828-1.387 7.377-1.193 1.46 0.066 2.358-1.355 3.782-1.377 1.926-0.345 3.993-0.301 5.749-1.278 1.315 0.176 2.485-0.505 3.531-1.162 1.886-0.589 3.76-1.241 5.61-1.902 1.359-0.286 2.861-0.675 3.72-1.862 1.174-0.35 2.462-0.376 3.467-1.152 1.912-0.817 4.032-1.302 5.636-2.685 1.347-0.486 2.742-0.891 3.916-1.729 2.044-0.733 3.727-2.119 5.711-2.969 2.124-1 4.033-2.393 6.086-3.501 2.78-1.201 5.14-3.13 7.718-4.688 3.471-2.395 7.023-4.671 10.53-7.007 3.737-2.78 7.376-5.708 10.66-9.014 2.696-2.73 6.004-4.865 8.177-8.084 1.515-2.109 3.254-4.034 4.847-6.078 1.639-2.033 3.252-4.146 4.398-6.495 0.758-0.634 1.468-1.222 1.516-2.311 0.272-1.196 1.651-1.602 2.023-2.769 0.262-1.009 1.09-1.568 1.752-2.307 0.784-0.916 0.293-2.188 0.875-3.207 0.529-1.57 1.613-2.916 2.251-4.399-0.058-0.843-0.399-2.161 0.762-2.394 0.972-0.383 1.483-1.512 1.129-2.483 0.026-2.14 1.755-3.9 1.509-6.093-0.068-1.024-0.1-2.345 1.029-2.794 0.982-1.213-0.097-2.901 0.708-4.214 0.772-2.482 1.115-5.061 1.806-7.565 0.487-1.733 0.36-3.561 0.705-5.3 0.438-1.633 1.385-3.539 0.521-5.154-0.814-0.807-0.702-2.534 0.493-2.916 0.228-1.2-0.98-2.613 0.08-3.631 0.655-1.189-1.327-1.742-1.137-2.789 0.463-0.652 2.023-0.661 1.652-1.758-0.542-0.934-1.548-1.941-0.96-3.085 0.208-2.707-2.315-5.137-1.198-7.854-0.015-1.739-1.456-3.129-1.31-4.918 0.019-1.682-0.528-3.256-1.302-4.725-0.84-1.722-1.547-3.542-2.105-5.346-1.492-1.763-1.158-4.453-2.862-6.096-1.254-2.041-1.868-4.441-3.463-6.279-0.854-1.262-1.603-2.601-2.155-4.023-0.9-0.321-1.926-0.944-1.465-1.998-0.539-0.865-1.673-1.267-1.771-2.406-1.031-1.88-2.778-3.309-3.642-5.274-0.715-0.674-2.016-1.17-1.876-2.357-0.399-1.271-2.307-1.522-2.303-2.992-0.731-1.143-1.586-2.27-2.438-3.284-1.171-0.507-1.46-2.015-2.663-2.439-0.76-0.804-1.227-1.837-2.192-2.448-0.643-0.889-1.375-1.625-2.176-2.372-0.235-0.761-0.263-1.687-1.284-1.86-0.731-0.172-1.248-0.728-1.307-1.463-0.586-0.986-2.101-1.268-2.243-2.537-0.755-0.974-2.173-1.108-2.904-2.111-0.921-0.507-1.896-1.161-2.117-2.238-0.825-0.542-1.791-0.91-2.143-1.905-1.334-1.408-3.439-1.794-4.65-3.353-1.029-0.724-2.508-0.864-3.141-2.073-0.847-0.477-2.088-0.412-2.484-1.471-0.96-0.805-2.269-1.023-3.303-1.732-2.014-1.146-3.971-2.459-6.253-3.017-1.535-0.717-3.059-1.471-4.643-2.059-0.874-0.696-2.199-0.152-2.809-1.203-0.657-1.175-1.479 0.453-2.295-0.131-0.983-1.226-2.662-0.681-3.925-1.355-2.025-1.237-4.728-0.329-6.657-1.809-0.849-0.123-1.893 0.427-2.505-0.436-1.164-0.688-2.602 0.485-3.737-0.386-1.285-0.43-2.755-0.092-3.939-0.861l-0.157-0.01zm-93.26 197.2c1.176 0.491 0.113 2.027-0.636 0.856-0.63-0.719-0.142-0.989 0.636-0.856z"/>
      <path id="ear-right-clickzone" d="m749.5 335c11.64 46.67 16.55 64.76-1 113 40.95 46.18 76.77 48.6 115.5 37 45.53-13.64 92.88-65.3 89.5-111-3.197-43.28-36.16-91.75-79-98.5-45.61-7.184-85.02 21.8-125 59.5z" fill="transparent"/>
    </g>
    <g id="player-hair">
        <path id="hair_09" d="m695.8 252c-1.002-0.786-1.563-0.824-2.569-0.174-2.61 1.689-3.18-0.594-0.737-2.957 3.015-2.919 2.733-3.541-0.396-0.87-1.414 1.207-2.927 2.195-3.362 2.195-1.325 0-1.853-4.51-0.635-5.432 0.578-0.438 1.051-1.147 1.051-1.576s-0.815 0-1.811 0.958c-1.714 1.646-4 1.784-2.419 0.146 0.481-0.498 0.492-1.179 0.035-2.065-0.534-1.034-0.297-1.748 1.089-3.283 1.193-1.32 1.653-2.467 1.407-3.507-0.263-1.114 0.201-2.038 1.663-3.313 1.116-0.972 1.827-1.977 1.58-2.233-0.247-0.255 0.236-0.65 1.073-0.877 0.837-0.226 1.521-0.822 1.521-1.323 0-0.891 1.901-2.118 2.931-1.893 0.284 0.063 0.517-0.449 0.517-1.136 0-1.265 4.142-5.178 5.48-5.178 0.399 0 0.726-0.33 0.726-0.733 0-0.745 3.471-4.332 9.454-9.771 1.817-1.652 4.111-3.741 5.098-4.642 2.331-2.13 5.966-5.299 9.662-8.424 1.625-1.375 5.143-4.709 7.817-7.409 7.446-7.518 14.87-14.38 15.57-14.38 0.345 0 1.759-1.106 3.143-2.459 2.736-2.673 9.407-3.409 11.85-1.307 0.582 0.5 1.235 0.805 1.452 0.677s0.516 0.147 0.665 0.611c0.184 0.572-0.222 0.68-1.271 0.335-1.133-0.372-1.461-0.25-1.235 0.461 0.168 0.532 1.136 1.07 2.15 1.194 1.818 0.223 2.497 1.771 1.154 2.631-0.379 0.243-0.69 0.062-0.69-0.403 0-0.628-0.263-0.617-1.034 0.046-1.308 1.124-1.319 2.437-0.032 3.545 0.723 0.621 0.82 1.245 0.345 2.23-0.362 0.752-1.013 2.09-1.446 2.974-0.763 1.559-0.746 1.569 0.572 0.358 3.577-3.292 4.905-0.202 1.623 3.776-1.123 1.36-2.053 2.813-2.069 3.229-0.063 1.708-18.54 20.02-25.81 25.58-2.505 1.917-4.556 3.743-4.556 4.059 0 0.315-0.543 0.755-1.207 0.977-0.663 0.222-2.137 1.289-3.275 2.372-1.138 1.084-3.772 3.415-5.855 5.181-4.252 3.606-5.733 4.896-10.75 9.371-7.934 7.071-15.84 13.49-16.59 13.46-0.325-0.013-1.169-0.476-1.874-1.029z"/>
        <path id="hair_08" d="m658.5 204.4c-0.25-0.417 0-1.301 0.544-1.964 1.725-2.086 2.061-3.011 0.928-2.561-0.572 0.228-1.44 1.349-1.928 2.492-1.624 3.799-3.857 0.133-2.65-4.35l0.672-2.5-1.355 1.687c-0.746 0.927-1.356 2.197-1.356 2.821 0 0.883-0.184 0.944-0.828 0.278-0.644-0.667-0.644-1.048 0-1.714 0.969-1.004 1.132-4.422 0.182-3.814-0.393 0.251-0.421-0.397-0.072-1.657 0.921-3.329 2.98-7.552 3.994-8.193 0.727-0.461 0.755-0.821 0.125-1.607-0.807-1.008-0.745-1.096 0.908-1.298 0.474-0.058 0.765-0.685 0.647-1.393-0.117-0.708 0.583-2.113 1.557-3.122s2.395-2.881 3.159-4.161c0.764-1.279 1.847-2.509 2.409-2.732 0.561-0.223 1.02-0.818 1.02-1.323s0.931-1.828 2.069-2.94 2.069-2.292 2.069-2.621 1.241-1.859 2.758-3.399c1.517-1.541 2.758-3.041 2.758-3.334 0-0.49 1.61-2.492 5.207-6.475 0.778-0.862 1.31-1.893 1.182-2.291-0.129-0.398 0.53-1.243 1.464-1.876 0.933-0.634 1.896-1.803 2.14-2.599 0.244-0.797 0.907-1.448 1.472-1.448 0.566 0 0.862-0.279 0.659-0.621-0.204-0.341 0.709-1.771 2.028-3.178s2.398-2.849 2.398-3.204 0.782-1.576 1.737-2.713c3.154-3.756 3.492-4.196 4.603-5.997 0.606-0.982 1.754-2.496 2.553-3.363 0.798-0.867 1.451-1.889 1.451-2.27 0-0.382 1.086-1.886 2.413-3.344 1.328-1.458 2.414-2.775 2.414-2.927 0-1.121 8.565-10.59 12.48-12.71 3.918-2.115 10.38-4.699 8.838-1.711-0.41 0.794-0.575 1.622-0.365 1.84 0.21 0.217 0.693-0.454 1.073-1.49 0.712-1.938 2.348-2.498 3.187-1.091 0.261 0.4368 0.047 1.075-0.476 1.418-0.714 0.468-0.585 0.626 0.521 0.634 0.885 6e-3 1.614 0.58 1.832 1.44 0.234 0.928 0.021 1.428-0.61 1.428-0.533 0-0.97 0.643-0.97 1.429 0 0.785 0.28 1.428 0.621 1.428 0.342 0 0.519 1.146 0.393 2.547-0.19 2.104-0.063 2.403 0.728 1.724 3.241-2.786 2.997 2.222-0.365 7.514-0.749 1.179-1.577 2.625-1.84 3.214-0.469 1.05-8.27 12.16-10.05 14.3-0.496 0.6-3.67 4.778-7.053 9.285s-6.395 8.516-6.694 8.908c-0.298 0.393-2.021 2.44-3.829 4.548-1.807 2.109-3.577 4.358-3.933 4.997-0.355 0.64-1.649 2.29-2.875 3.666-1.225 1.377-2.951 3.467-3.835 4.646-0.884 1.178-2.392 2.834-3.352 3.68-0.959 0.846-2.175 2.373-2.703 3.393-0.527 1.02-1.371 1.855-1.876 1.855s-0.918 0.316-0.918 0.703c0 1.172-20.54 22.15-21.69 22.15-1.46 0-1.34-0.952 0.315-2.503 0.761-0.714 1.231-1.455 1.044-1.649-0.185-0.193-0.986 0.501-1.778 1.543-0.791 1.043-1.882 1.895-2.423 1.895s-0.984 0.322-0.984 0.714c0 0.946-1.178 0.916-1.751-0.045z"/>
        <path id="hair_07" d="m611.2 175.9c-1.949-2.222-2.346-3.193-1.104-2.699 0.62 0.246 1.34 0.089 1.601-0.348 0.336-0.563-0.444-0.665-2.671-0.349-2.377 0.338-3.238 0.199-3.521-0.565-0.256-0.691-0.035-0.877 0.694-0.587 0.78 0.31 0.993 0.059 0.786-0.93-0.156-0.744-0.697-1.258-1.203-1.141-0.72 0.167-0.83-0.685-0.506-3.928 0.305-3.056 0.236-3.693-0.261-2.431-0.804 2.04-1.658 1.542-1.006-0.585 0.25-0.815 0.976-1.487 1.614-1.493 0.939-8e-3 0.977-0.132 0.198-0.643-0.637-0.418-0.774-1.077-0.404-1.953 0.719-1.703 0.646-1.476 1.744-5.429 0.519-1.866 1.189-3.392 1.49-3.392 0.3 0 0.546-0.777 0.546-1.727 0-0.949 0.658-3.28 1.462-5.178 0.804-1.899 1.71-4.416 2.014-5.595 0.304-1.178 1.232-4.232 2.062-6.785 1.673-5.142 2.008-6.274 2.015-6.8 0-0.197 0.538-1.399 1.19-2.671 0.652-1.273 1.104-2.877 1.005-3.564-0.1-0.687 0.168-1.25 0.594-1.25 0.425 0 0.573-0.335 0.328-0.745-0.244-0.411-0.092-1.186 0.339-1.724s0.937-1.89 1.123-3.004c0.186-1.115 0.726-2.348 1.198-2.741 0.471-0.393 0.745-1.276 0.609-1.964-0.137-0.687 0.084-1.25 0.492-1.25 0.407 0 0.74-0.643 0.74-1.428 0-0.786 0.31-1.429 0.69-1.429 0.379 0 0.689-0.343 0.689-0.762 0-0.8699 3.085-5.325 5.161-7.452 0.767-0.7857 2.014-2.253 2.771-3.26 2.261-3.006 4.908-4.55 5.422-3.163 0.334 0.902 0.703 0.9698 1.841 0.3387 2.129-1.18 5.194-0.6261 4.948 0.8946-0.139 0.8608 0.123 1.11 0.862 0.8164 0.738-0.2934 1.062 0.014 1.062 1.006 0 0.7857-0.465 1.614-1.034 1.84-1.356 0.5386-1.328 2.329 0.045 2.874 0.593 0.2358 1.023 0.9933 0.955 1.684-0.205 2.075 0.117 4.18 0.491 3.219 0.474-1.214 2.992-1.137 2.992 0.0924 0 0.9226-1.319 4.206-5.253 13.08-0.904 2.038-1.643 4.052-1.643 4.474 0 0.423-0.301 1.326-0.669 2.009-0.368 0.682-1.74 4.454-3.05 8.382-1.31 3.929-3.046 8.91-3.859 11.07-0.812 2.161-1.882 5.214-2.378 6.785-4.401 13.94-12.07 29.34-14.49 29.07-1.327-0.151-2.233 0.24-2.924 1.262-1.462 2.161-2.342 1.094-1.926-2.337 0.331-2.728 0.289-2.835-0.472-1.206-0.458 0.982-0.854 2.4-0.878 3.151-0.059 1.811-1.165 2.016-2.524 0.466z"/>
        <path id="hair_06" d="m559.2 160.1c-1.518-0.249-2.448-0.504-2.069-0.566 0.379-0.061 0.234-0.41-0.322-0.774-0.556-0.365-1.332-0.406-1.724-0.093-1.077 0.863-3.816 1.434-3.816 0.797 0-0.308 0.674-1.023 1.497-1.59 0.933-0.641 1.296-1.367 0.963-1.925-0.396-0.663-0.794-0.512-1.536 0.585-1.56 2.307-4.972 0.384-5.038-2.84-0.02-0.609-0.372-1.468-0.799-1.91-1.072-1.111-1.043-14.86 0.037-18.26 0.759-2.381 2.739-12.45 3.752-19.08 0.09-0.59 0.569-2.518 1.063-4.286 0.495-1.768 1.033-4.018 1.197-5 0.162-0.982 0.453-2.322 0.643-2.978s0.48-1.781 0.643-2.5c0.162-0.7189 0.616-2.593 1.008-4.164 1.3-5.216 4.092-19.21 4.844-24.28 1.679-11.32 4.371-18.93 6.693-18.93 0.651 0 0.884 0.4009 0.622 1.071-1.11 2.84-1.208 3.621-0.28 2.226 3.866-5.812 7.306-6.917 10.86-3.488 1.266 1.223 1.869 1.407 2.585 0.791 1.64-1.409 1.803-0.0332 0.241 2.024-1.577 2.076-0.83 3.239 1.045 1.627 1.502-1.291 2.081-0.2246 1.196 2.204-0.424 1.164-0.509 2.116-0.188 2.116s0.78-0.6428 1.021-1.428 0.763-1.428 1.161-1.428c0.436 0 0.529 0.6393 0.234 1.607-0.269 0.8838-0.651 2.491-0.848 3.571-0.197 1.08-0.672 1.964-1.055 1.964-0.395 0-0.325 0.4622 0.163 1.071 0.621 0.7756 0.638 1.071 0.06 1.071-0.576 0-0.599 0.3852-0.082 1.385 0.502 0.9719 0.492 1.529-0.035 1.866-0.413 0.2646-0.598 1.088-0.411 1.829 0.188 0.7413 0.119 1.348-0.152 1.348s-0.423 1.038-0.338 2.308c0.084 1.269-0.022 2.603-0.238 2.964-0.215 0.361-0.495 1.653-0.622 2.871-0.325 3.129-0.824 6.5-0.961 6.5-0.064 0-0.239 1.427-0.39 3.17-0.15 1.744-0.618 3.391-1.039 3.66-0.561 0.3588-0.561 0.6211 0 0.9797 0.52 0.333 0.549 0.9076 0.09 1.795-0.371 0.7179-1.141 3.992-1.712 7.278-1.127 6.485-1.658 8.958-2.279 10.62-0.221 0.589-0.462 1.714-0.534 2.5s-0.357 2.393-0.631 3.571c-0.275 1.179-0.595 3.336-0.712 4.793-0.188 2.335-1.02 5.734-3.187 12.99-0.34 1.139-0.618 3.132-0.618 4.429 0 1.391-0.44 2.613-1.073 2.98-0.961 0.556-0.945 0.852 0.145 2.821 1.226 2.214-0.19 7.341-2.029 7.341-0.315 0-0.403 0.285-0.195 0.633 0.974 1.634-2.805 2.829-6.848 2.166z"/>
        <path id="hair_05" d="m505.1 152.6c-0.474-0.198-0.862-0.806-0.862-1.35s-0.416-0.824-0.925-0.621c-0.591 0.234-1.189-0.484-1.654-1.987-0.694-2.245-0.731-2.266-0.798-0.454-0.069 1.869-1.417 2.371-2.637 0.982-0.295-0.337-0.135-0.371 0.357-0.078 0.941 0.563 0.904-2.609-0.041-3.588-0.256-0.265-0.325 0.268-0.155 1.183 0.27 1.453 0.184 1.533-0.691 0.628-0.579-0.6-1.198-3.241-1.47-6.274-0.326-3.642-0.782-5.363-1.496-5.646-0.861-0.342-0.823-0.562 0.236-1.365 0.695-0.526 0.913-0.956 0.485-0.956s-0.8-0.563-0.826-1.25c-0.026-0.688-0.182-6.875-0.347-13.75-0.406-17.03-0.924-27.14-1.738-33.93-0.376-3.143-0.588-7.232-0.471-9.088 0.117-1.856-0.02-3.463-0.295-3.571-0.446-0.1734-0.838-4.958-1.63-19.94-0.117-2.217-0.412-4.365-0.655-4.772-0.243-0.407-0.158-0.922 0.19-1.144 0.347-0.2223 0.562-2.189 0.477-4.37-0.084-2.182 0.063-4.105 0.328-4.275s0.482-1.128 0.482-2.131c0-1.002 0.505-2.4 1.122-3.106 0.617-0.7064 0.956-1.457 0.752-1.668-0.203-0.2109 0.429-0.2251 1.406-0.0316 1.032 0.2043 1.693 0.045 1.576-0.38-0.112-0.4024 0.109-0.7868 0.488-0.8541 0.38-0.0672 1.233-0.6313 1.897-1.253 1.467-1.375 1.585-0.3586 0.197 1.694-1.362 2.013-0.506 2.729 0.983 0.823 1.376-1.759 2.819-1.219 2.295 0.8589-0.252 0.9994-0.022 1.428 0.771 1.428 0.623 0 1.453 0.8729 1.844 1.94 0.535 1.456 0.857 1.697 1.293 0.9673 1.264-2.119 2.588-0.1891 2.986 4.352 0.37 4.231 1.395 12.72 2.227 18.45 0.2 1.375 0.468 3.785 0.595 5.357 0.312 3.838 1.051 11.05 1.759 17.14 0.32 2.75 0.635 6.909 0.7 9.243 0.067 2.334 0.272 4.499 0.458 4.812 0.186 0.3124 0.347 7.27 0.357 15.46 0.02 13.14-0.28 20.11-1.171 27.62-0.141 1.178-0.466 4.017-0.724 6.308-0.393 3.485-0.735 4.27-2.09 4.803-0.963 0.38-1.619 1.224-1.619 2.084 0 2.213-1.212 1.72-1.726-0.702-0.25-1.182-0.717-1.981-1.038-1.776-0.32 0.205-0.317 1.333 0 2.506 0.588 2.124 0.428 2.344-1.209 1.66z"/>
        <path id="hair_04" d="m453.6 162c-0.218-0.589-0.782-1.071-1.252-1.071-0.471 0-1.192-0.724-1.604-1.608l-0.748-1.607-0.104 1.786c-0.097 1.697-0.152 1.67-1.083-0.536-1.096-2.595-1.727-3.074-1.176-0.892 0.952 3.768-1.12 0.821-2.51-3.572-0.871-2.75-1.947-4.999-2.392-4.999s-0.868-0.563-0.941-1.25c-0.409-3.866-1.097-7.068-1.681-7.823-0.366-0.472-0.463-1.517-0.217-2.321 0.331-1.078 0.143-1.463-0.71-1.463-0.896 0-1.091-0.487-0.856-2.143 0.166-1.178 0.078-2.142-0.199-2.142-0.569 0-2.195-4.084-2.274-5.714-0.03-0.59-0.391-1.393-0.804-1.786s-1.466-3.049-2.339-5.902c-0.874-2.853-1.85-5.355-2.171-5.56-0.32-0.206-0.295-1.156 0.057-2.113 0.494-1.345 0.382-1.887-0.492-2.394-1.138-0.66-1.404-1.388-2.06-5.637-0.198-1.276-0.569-2.321-0.826-2.321-0.436 0-0.757-1.479-0.968-4.464-0.049-0.6874-0.312-1.25-0.584-1.25-0.485 0-0.572-0.7884-0.765-6.964-0.053-1.67-0.308-3.036-0.569-3.036-0.707 0 0.125-9.498 0.923-10.54 0.383-0.5002 0.489-2.183 0.238-3.806-0.391-2.534-0.291-2.878 0.775-2.667 0.673 0.1328 1.322 0.9614 1.444 1.841 0.121 0.8798 0.487 1.6 0.814 1.6 0.326 0 0.304-1.042-0.049-2.317-1.078-3.893 0.131-5.143 1.463-1.513 0.381 1.036 0.897 1.673 1.147 1.414 0.679-0.7031 0.742-3.299 0.082-3.299-0.316 0-0.575-0.5165-0.575-1.148 0-0.7532 0.375-0.9988 1.091-0.7143 0.6 0.2385 1.514 0.4336 2.031 0.4336 0.518 0 1.35 0.8839 1.849 1.964 0.5 1.08 1.216 1.97 1.59 1.976 1.077 0.0182 3.783 2.708 3.783 3.76 0 0.5251 0.311 0.7556 0.692 0.5121 0.459-0.294 0.449-0.9112-0.03-1.838-0.682-1.32 0.819-2.936 1.792-1.928 0.831 0.8601 2.279 8.655 2.659 14.31 0.515 7.651 2.488 17.79 4.481 23.03 1.272 3.341 2.301 6.591 2.827 8.928 0.31 1.375 1.655 6.357 2.989 11.07 2.778 9.818 3.148 11.73 3.572 18.44 0.17 2.68 0.472 5.149 0.673 5.486s0.02 0.833-0.401 1.103c-0.488 0.313-0.606 1.604-0.323 3.558 0.27 1.865 0.16 3.247-0.279 3.528-0.447 0.286-0.722-0.416-0.722-1.841 0-3.448-0.775-1.975-0.951 1.807-0.193 4.148-1.077 4.451-2.246 0.77l-0.908-2.857 0.244 3.393c0.233 3.247-0.571 4.575-1.407 2.321z"/>
        <path id="hair_03" d="m398.9 174.7c-1.168-1.157-1.845-1.42-2.186-0.85-0.461 0.773-4.998-2.109-6.215-3.948-0.242-0.365-0.75-0.466-1.129-0.224-0.379 0.243-0.646-0.11-0.594-0.784 0.053-0.673-0.293-1.232-0.768-1.242-0.474-0.01-0.892-0.339-0.93-0.731-0.158-1.668-1.489-3.296-2.398-2.935-0.54 0.214-1.005 0.159-1.034-0.123-0.239-2.322-0.768-3.467-2.075-4.488-0.835-0.652-1.321-1.518-1.079-1.924 0.242-0.405-0.068-0.939-0.689-1.186s-0.927-0.658-0.679-0.915c0.247-0.256-0.182-1.162-0.955-2.014-0.772-0.851-1.534-2.247-1.693-3.101-0.158-0.854-0.771-2.052-1.36-2.662-0.589-0.611-1.072-1.864-1.072-2.785 0-0.922-0.362-1.801-0.804-1.953-0.443-0.153-0.805-1.274-0.805-2.492 0-1.678-0.251-2.113-1.039-1.8-0.748 0.297-0.917 0.085-0.605-0.76 0.239-0.644 0.137-1.362-0.225-1.594s-0.659-1.046-0.659-1.809c0-0.762-0.31-1.386-0.69-1.386-0.379 0-0.689-0.633-0.689-1.407 0-0.773-0.629-2.566-1.398-3.983-0.768-1.417-1.339-2.954-1.268-3.414 0.07-0.461-0.234-1.749-0.676-2.862-0.443-1.114-0.65-2.285-0.46-2.604s-0.117-0.764-0.685-0.989c-0.566-0.225-1.028-0.982-1.027-1.682 0-1.674-1.861-7.517-3.828-11.99-3.279-7.453-3.829-8.602-4.645-9.705-0.462-0.6237-1.304-1.293-1.871-1.487s-1.063-0.8087-1.101-1.366c-0.228-3.283-0.323-3.707-0.735-3.281-0.675 0.6997-2.36-0.9882-1.847-1.85 0.244-0.4079 0-1.101-0.524-1.54-2.629-2.171-3.62-6.529-1.312-5.77 1.701 0.5592 1.789-0.2262 0.172-1.528-1.068-0.8595-1.087-1.075-0.168-1.864 0.571-0.491 0.938-1.616 0.814-2.5-0.153-1.083 0.127-1.607 0.856-1.607 0.688 0 1.083 0.6355 1.083 1.743 0 0.959 0.358 1.973 0.797 2.254 0.571 0.3654 0.672-0.1375 0.357-1.771-0.578-2.99 1.054-3.75 3.029-1.411 0.999 1.184 1.53 1.413 1.786 0.7714 0.247-0.618 1.105-0.7688 2.658-0.4672 2.011 0.3908 2.321 0.2466 2.522-1.174 0.362-2.559 1.619-2.381 4.502 0.6345 1.472 1.539 3.362 3.024 4.201 3.3 0.838 0.2757 1.525 0.9649 1.525 1.532 0 0.5666 0.62 1.581 1.379 2.253 0.758 0.6727 1.379 1.504 1.379 1.847s0.599 1.496 1.332 2.561c0.732 1.065 1.866 3.365 2.52 5.11s1.549 3.655 1.988 4.244c0.44 0.5893 1.519 3.643 2.399 6.785 0.879 3.142 2.207 7.642 2.952 9.999 0.744 2.357 1.468 4.768 1.608 5.357 0.328 1.379 4.244 12.77 5.033 14.64 0.331 0.786 0.995 2.291 1.476 3.345s0.914 2.5 0.963 3.214c0.098 1.424 7.591 17.08 8.997 18.8 0.865 1.057 4.522 8.819 4.522 9.598 0 0.878-1.627 0.329-2.514-0.849-0.518-0.687-0.33 0.278 0.418 2.146s1.154 3.958 0.901 4.643c-0.646 1.757-3.942 5.216-3.398 3.568 0.327-0.993 0.019-1.25-1.497-1.25-1.05 0-2.282-0.386-2.737-0.857-0.644-0.667-0.828-0.667-0.828 0 0 0.471 0.3 0.857 0.666 0.857 0.666 0 2.406 2.8 1.976 3.182-0.125 0.112-0.99-0.551-1.921-1.474z"/>
        <path id="hair_02" d="m354.4 204.3c-0.202-0.547-0.062-1.828 0.312-2.847 0.533-1.45 0.438-2.06-0.436-2.802-0.984-0.835-1.067-0.748-0.697 0.736 0.542 2.178-0.539 5.101-1.887 5.101-0.709 0-1.051-0.698-1.051-2.142 0-2.149-1.483-2.988-2.442-1.382-0.306 0.513-0.824 0.432-1.592-0.249-2.019-1.79-3.439-2.003-3.049-0.459 0.686 2.715-2.945 1.717-4.743-1.303-0.877-1.473-2.411-3.393-3.409-4.266s-3.331-3.926-5.185-6.785-3.591-5.301-3.861-5.427c-0.269-0.125-3.283-3.982-6.698-8.571-3.416-4.588-8.005-10.64-10.2-13.44-6.418-8.198-7.914-10.2-9.954-13.36-2.027-3.129-3.615-5.356-7.273-10.2-3.131-4.148-5.731-9.447-5.705-11.63 0.02-1.697 0.102-1.749 0.938-0.607 1.373 1.873 1.814 1.509 1.023-0.843-0.809-2.404-0.571-5.844 0.397-5.733 0.36 0.041 0.903-0.619 1.206-1.467 0.615-1.722 2.383-1.548 2.085 0.206-0.106 0.617 0.127 1.326 0.517 1.575 0.414 0.265 0.708-0.306 0.708-1.374 0-1.006 0.329-1.828 0.73-1.828 0.402 0 0.578-0.257 0.391-0.57-0.188-0.313-0.067-1.028 0.267-1.587 0.494-0.829 0.7-0.757 1.111 0.391 0.893 2.496 3.127 3.425 2.528 1.052-0.452-1.792 0.804-1.863 2.002-0.114 1.241 1.811 3.685 3.053 4.989 2.534 0.596-0.237 1.084-0.138 1.084 0.218 0 0.357 1.429 2.24 3.176 4.184 1.746 1.944 4.19 4.666 5.43 6.049 1.241 1.383 2.879 3.576 3.641 4.875 0.762 1.298 2.042 2.836 2.845 3.418 0.802 0.582 1.458 1.345 1.458 1.695 0 0.953 3.144 4.282 4.044 4.282 0.431 0 0.783 0.444 0.783 0.987s1.242 2.273 2.759 3.845c1.517 1.571 2.765 3.135 2.774 3.476 0 0.341 1.017 1.796 2.241 3.233s3.156 3.812 4.294 5.278c1.138 1.465 2.457 3.079 2.931 3.585 0.474 0.507 0.862 1.426 0.862 2.044 0 0.617 0.458 1.122 1.018 1.122s1.566 0.884 2.236 1.964c0.669 1.08 1.467 2.286 1.772 2.678 1.435 1.847 5.318 8.411 5.318 8.991 0 0.358 0.498 0.652 1.108 0.652 0.691 0 0.962 0.395 0.719 1.048-0.213 0.577-0.086 1.242 0.283 1.478 0.368 0.236 0.479 0.75 0.245 1.142-0.234 0.393 0.235 0.892 1.042 1.111 1.076 0.291 1.356 0.765 1.047 1.773-0.232 0.756 0 2.082 0.521 2.947 1.459 2.431 1.666 10.5 0.27 10.5-0.604 0-1.098 0.447-1.098 0.995 0 0.547-0.466 1.18-1.034 1.406-0.569 0.226-1.035 0.884-1.035 1.462 0 1.456-1.307 2.161-1.757 0.948z"/>
        <path id="hair_01" d="m318.2 249.1c-0.948-0.568-2.189-1.287-2.758-1.597-3.27-1.783-7.388-5.287-14.07-11.97-4.135-4.136-7.788-7.521-8.118-7.521-0.329 0-0.952-0.803-1.384-1.785s-1.031-1.786-1.33-1.786c-0.3 0-4.33-3.776-8.957-8.392-22.67-22.61-28.61-29.87-26.06-31.83 0.787-0.606 1.011-1.568 0.768-3.287-0.231-1.631-0.02-2.687 0.655-3.208 0.549-0.427 1.216-1.375 1.482-2.107 0.325-0.895 0.931-1.209 1.854-0.96 0.753 0.205 1.37 0.08 1.37-0.276s0.466-0.647 1.035-0.647 1.034 0.375 1.034 0.833 0.176 0.651 0.393 0.427c0.216-0.224 0-1.066-0.491-1.872-1.416-2.348 0-2.748 1.741-0.491 1.06 1.376 1.746 1.779 2.079 1.222 0.273-0.459 0.131-0.833-0.318-0.833-1.704 0 0.667-1.826 2.587-1.992 1.838-0.158 7.111 4.586 7.111 6.398 0 0.326 0.233 0.517 0.517 0.423 0.285-0.093 4.176 3.599 8.647 8.204 4.471 4.606 8.738 8.711 9.482 9.123 0.743 0.412 1.352 1.221 1.352 1.796s0.263 0.966 0.584 0.868c0.655-0.2 13.78 12.38 22.4 21.48 3.1 3.269 6.489 6.778 7.532 7.796s1.9 2.199 1.905 2.626c0 0.426 1.091 1.5 2.414 2.388 1.419 0.953 2.405 2.196 2.405 3.036 0 1.734-0.232 2.532-0.69 2.374-0.667-0.231-0.352 4.411 0.337 4.957 1.423 1.127-3.014 3.928-5.396 3.405-1.2-0.263-3.228-0.242-4.507 0.047-1.278 0.29-2.803 0.336-3.388 0.104-0.699-0.278-0.893-0.136-0.565 0.412 0.274 0.46 1.411 0.836 2.526 0.836 2.495 0 2.618 0.921 0.272 2.028-2.202 1.039-2.352 1.032-4.45-0.224z"/>
        <rect id="hair-clickzone" x="256" width="512" height="256" fill="transparent"/>
    </g>
    <g id="player-head">
      <image id="player-head-image" href="{{ audiobook.image }}" x="256" y="128" height="512" width="512" clip-path="url(#circular)"/>
      <path id="pause-button" d="m601.6 523.1c-0.267-0.844-0.89-1.234-1.65-1.034-1.445 0.38-5.126-2.729-3.77-3.183 0.593-0.199 0.443-0.602-0.461-1.238-1.123-0.792-2.101-3.067-3.407-7.929-0.157-0.584-1.174-0.618-3.645-0.121-1.885 0.378-8.294 0.73-14.24 0.782l-10.82 0.093-0.723 2.084c-0.568 1.64-0.927 1.914-1.681 1.285-1.377-1.149-1.841-0.327-1.39 2.466 0.313 1.937 0.157 2.436-0.765 2.436-0.637 0-1.159-0.472-1.159-1.049 0-2-3.164-0.043-3.558 2.201-0.199 1.134-0.679 1.949-1.065 1.812-0.387-0.138-0.613-0.573-0.502-0.967 0.357-1.264-0.623-3.426-1.552-3.426-1.106 0-1.213 2.3-0.141 3.036 0.537 0.368 0.448 0.753-0.285 1.231-0.784 0.512-1.369 0.295-2.214-0.821-0.79-1.043-1.243-1.23-1.452-0.601-0.468 1.412-3.437 0.166-3.437-1.442 0-0.785-0.375-1.22-0.888-1.031-1.729 0.637-4.794-3.586-4.794-6.605 0-0.718-0.44-1.94-0.978-2.714-2.13-3.072-2.608-22.9-1.41-58.55 0.911-27.11 0.733-98.03-0.266-105.7-0.459-3.535-1.039-10.12-1.288-14.64s-0.573-8.408-0.721-8.648c-0.147-0.24-0.453-2.33-0.68-4.645s-0.742-6.941-1.146-10.28-0.865-7.839-1.025-9.999c-0.159-2.161-0.798-8.243-1.417-13.52-1.303-11.1-0.726-17.59 1.489-16.73 0.734 0.283 1.138-0.412 1.476-2.537 0.255-1.609 0.752-2.926 1.102-2.926s0.941-0.803 1.312-1.785c0.372-0.982 1.148-1.786 1.725-1.786 1.77 0 4.668-1.604 4.668-2.584 0-0.623 0.827-0.861 2.522-0.727 1.388 0.11 2.687-0.068 2.888-0.395 0.202-0.327 1.224-0.587 2.272-0.578 2.775 0.024 13.21-0.521 13.63-0.712 1.096-0.502 6.179-0.29 6.98 0.292 0.633 0.46 1.128 0.381 1.51-0.241 0.411-0.669 1.427-0.777 3.675-0.393 1.709 0.292 5.664 0.615 8.789 0.718 7.404 0.242 24.55 2.348 25.52 3.134 0.416 0.337 2.435 0.839 4.486 1.116 2.492 0.337 3.729 0.837 3.729 1.508 0 0.553 0.559 1.015 1.243 1.029 2.233 0.042 4.188 2.398 4.709 5.674 0.277 1.738 0.824 3.548 1.216 4.024 0.75 0.908-0.47 2.252-1.292 1.424-0.232-0.233-0.784 0.297-1.226 1.179-0.556 1.109-1.31 1.53-2.449 1.366-1.806-0.26-1.873 9.62-0.105 15.58 0.406 1.366 0.558 3.054 0.338 3.75-0.228 0.722-0.041 1.267 0.435 1.267 0.536 0 0.676 0.639 0.39 1.785-0.245 0.982-0.171 1.786 0.163 1.786 0.335 0 0.664 1.467 0.731 3.261 0.069 1.794 0.432 4.648 0.81 6.343 0.378 1.696 0.891 5.612 1.14 8.703 0.25 3.091 0.547 6.423 0.661 7.406 0.112 0.982 0.403 4.517 0.644 7.856 0.24 3.339 0.605 7.627 0.809 9.529 0.237 2.206 0.054 3.842-0.503 4.519-0.695 0.841-0.692 1.175 0.02 1.615 0.822 0.511 0.603 38.43-0.296 51.12-0.139 1.964-0.426 6.785-0.638 10.71-0.436 8.068-0.837 13.21-1.478 18.93-0.605 5.389-0.921 8.73-1.417 15-0.234 2.947-0.603 5.839-0.821 6.429-2.31 6.244-3.401 40.27-1.419 44.27 0.65 1.309 0.775 2.157 0.321 2.157-0.471 0-0.601 1.117-0.35 2.997 0.248 1.858 0.02 3.927-0.617 5.444-0.559 1.346-1.016 3.532-1.016 4.859 0 1.818-0.307 2.416-1.243 2.424-1.031 0.01-1.067 0.123-0.212 0.667 0.567 0.361 1.265 0.511 1.549 0.334 0.285-0.176 0.705-0.016 0.934 0.355 0.228 0.372 0.09 0.879-0.306 1.125-0.398 0.247-0.722 1.416-0.722 2.597 0 3.376-1.169 5.001-3.225 4.482-1.506-0.38-1.748-0.195-1.748 1.335 0 3.316-5.224 4.748-6.332 1.735-0.534-1.45-0.543-1.449-0.944 0.089-0.497 1.914-2.418 2.042-3 0.2zm-24.85-39.74c10.14-0.619 10.49-0.659 11.56-1.323 0.5-0.311 1.342-0.399 1.87-0.195 1.31 0.506 1.791-1.664 1.802-8.129 0-2.962 0.485-9.069 1.065-13.57s1.406-10.92 1.835-14.26 0.91-6.875 1.067-7.857c0.158-0.982 0.612-4.518 1.008-7.857s1.027-8.642 1.402-11.78c0.965-8.1 1.581-14.93 1.869-20.71 0.137-2.75 0.497-9.178 0.801-14.28 0.789-13.26 0.549-48.71-0.387-57.14-0.76-6.846-1.067-10.1-1.918-20.36-0.212-2.554-0.691-6.588-1.064-8.965s-0.861-7.359-1.086-11.07c-0.224-3.712-0.518-7.1-0.654-7.529-0.386-1.225-16.9-3.163-28.08-3.295-18.24-0.215-24.32 1.234-19.02 4.529 0.405 0.251 0.517 0.815 0.249 1.251-0.269 0.437-0.129 0.795 0.312 0.795 0.465 0 0.619 0.572 0.368 1.368-0.238 0.753-0.099 1.575 0.307 1.828 0.407 0.252 0.739 1.707 0.739 3.232s0.306 2.962 0.68 3.195c0.373 0.232 0.497 0.898 0.275 1.479-0.222 0.582-0.02 1.522 0.448 2.089s0.636 1.38 0.373 1.808c-0.262 0.427-0.105 1.227 0.35 1.779 0.455 0.551 0.732 1.742 0.616 2.647-0.117 0.905 0.024 2.027 0.314 2.493 0.492 0.795 1.502 8.122 2.247 16.29 0.18 1.964 0.512 5.178 0.739 7.142s0.553 5.018 0.723 6.785c0.169 1.768 0.489 4.661 0.71 6.429 0.22 1.767 0.544 6.106 0.718 9.642 0.175 3.535 0.533 8.196 0.795 10.36 0.518 4.261 0.411 83.41-0.127 93.92-0.398 7.795-0.46 11.2-0.391 21.57l0.053 8.002 4.439 0.212c2.442 0.117 4.615 0.154 4.828 0.082 0.214-0.073 3.89-0.346 8.169-0.607zm-101.5 33.5c-0.237-0.238-2.285-0.577-4.551-0.752-4.839-0.374-7.818-0.7-8.56-0.935-0.293-0.093-1.652-0.234-3.019-0.314s-6.641-0.392-11.72-0.693c-6.037-0.359-11.29-0.265-15.18 0.271-7.429 1.023-18.56 0.319-18.56-1.174 0-0.551-0.497-1.193-1.106-1.428-0.608-0.235-0.944-0.851-0.746-1.37 0.199-0.522-0.263-1.141-1.035-1.387-0.845-0.27-1.188-0.777-0.871-1.287 0.289-0.463 0.533-1.323 0.543-1.913 0.02-0.589 0.738-1.174 1.617-1.299 0.985-0.141 1.598-0.725 1.598-1.52 0-0.711 0.72-1.785 1.599-2.388 1.589-1.091 1.59-1.103 0.177-2.23-1.805-1.441-0.209-2.982 3.852-3.72 5.641-1.025 7.198-3.218 5.391-7.592-0.284-0.687-0.347-1.692-0.141-2.234 0.207-0.541 0.032-1.33-0.388-1.752s-0.794-2.229-0.832-4.015-0.343-3.248-0.679-3.248c-0.335 0-0.401-0.834-0.147-1.854 0.255-1.02 0.149-2.233-0.233-2.696-0.382-0.464-0.869-2.3-1.081-4.081-0.213-1.78-0.865-5.752-1.45-8.826-0.585-3.073-0.884-5.881-0.663-6.239 0.22-0.358 0.082-1.039-0.306-1.512-0.388-0.474-0.847-2.63-1.02-4.79-0.173-2.161-0.48-4.411-0.684-5-0.496-1.435-2.62-19.22-3.412-28.57-0.844-9.964-1.496-17.5-1.852-21.43-0.458-5.047-0.456-31.03 0-38.93 0.228-3.929 0.603-10.72 0.834-15.08 0.23-4.368 0.681-9.832 1.002-12.14 0.854-6.146 0.317-23.01-1.02-32.06-0.639-4.321-1.16-9.696-1.159-11.94 2e-3 -2.249-0.299-4.276-0.67-4.506-0.37-0.23-0.673-1.525-0.673-2.876 0-1.352-0.356-2.458-0.793-2.458-0.436 0-0.636-0.602-0.445-1.338 0.26-0.999 0.036-1.256-0.885-1.014-2.068 0.544-2.386-1.874-0.349-2.653 0.969-0.371 1.762-1.023 1.762-1.451 0-0.427 0.56-0.719 1.243-0.649 2.373 0.242 3.169-0.043 2.802-1.004-0.203-0.531 0.256-1.504 1.02-2.162 1.756-1.512 1.195-2.499-1.161-2.045-1.392 0.267-1.715 0.661-1.389 1.693 0.516 1.635-1.499 2.652-2.74 1.382-0.649-0.664-0.476-1.159 0.758-2.174 0.879-0.722 1.598-1.664 1.598-2.092s0.302-0.778 0.67-0.778 1.84-0.694 3.271-1.543c1.491-0.885 4.16-1.644 6.255-1.779 2.011-0.129 5.093-0.408 6.851-0.619 6.808-0.817 53.88-0.877 57.32-0.072 3.259 0.763 7.222 2.93 6.733 3.681-0.464 0.712 0.719 4.619 1.29 4.264 2.923-1.816 3.656 4.766 4.616 41.42 0.378 14.46 1.322 37.69 2.133 52.5 3.297 60.24 0.757 144.9-4.472 149.1-0.634 0.505-0.763 0.893-0.298 0.893 0.454 0 0.64 0.482 0.415 1.071s-0.774 1.075-1.22 1.078c-0.447 6e-3 -1.443 1.45-2.215 3.214-0.771 1.764-1.73 3.245-2.13 3.29-0.401 0.046-1.139 0.126-1.641 0.179-0.501 0.053-1.186 0.541-1.522 1.086-0.337 0.547-2.265 1.15-4.302 1.347-2.399 0.232-3.358 0.569-2.739 0.963 0.758 0.483 0.728 0.609-0.149 0.617-0.606 6e-3 -1.471-0.361-1.923-0.816-0.62-0.623-1.065-0.624-1.806-6e-3 -0.541 0.452-1.177 0.626-1.414 0.388zm5.466-23.3c-0.081-1.67-0.194-3.036-0.249-3.036-0.057 0-0.246-3.024-0.421-6.721s-0.468-6.873-0.653-7.058-0.026-0.918 0.353-1.628c0.413-0.776 0.427-1.453 0.034-1.696-0.361-0.224-0.663-7.028-0.677-15.22-0.02-8.149-0.04-14.98-0.06-15.17-0.021-0.197-0.174-8.553-0.343-18.57-0.169-10.02-0.336-18.21-0.373-18.21-0.036 0-0.205-6.589-0.373-14.64-0.167-8.053-0.496-18.66-0.729-23.57-0.233-4.91-0.548-11.62-0.7-14.9-0.153-3.286-0.448-7.625-0.658-9.642-0.373-3.582-1.072-17.23-1.47-28.67-0.108-3.143-0.398-9.41-0.642-13.93-0.244-4.517-0.578-11.66-0.741-15.88-0.391-10.12 0.599-9.396-12.04-8.816-32.76 1.504-30.09 0.684-28.54 8.776 2.41 12.63 3.161 30.87 1.787 43.42-2.296 20.96-2.984 45.63-1.763 63.21 0.4 5.756 3.748 38.95 4.286 42.5 0.889 5.853 3.193 24.04 3.484 27.5 0.182 2.161 0.65 6.821 1.039 10.36 0.389 3.535 0.923 9.383 1.186 12.99 0.543 7.449 0.123 7.072 8.148 7.288 5.338 0.145 18.75 2.026 23.08 3.238 6.445 1.803 7.203 1.596 7.034-1.914z" fill="#000000" stroke-width=".7123"/>
      <path id="play-button" d="m421.7 525.5c-0.683-0.18-1.243-0.633-1.243-1.006 0-0.374-0.799-0.985-1.775-1.359-0.977-0.373-1.776-1.134-1.776-1.691 0-1.533-2.093-2.02-3.332-0.775-2.093 2.105-5.004-3.508-5.574-10.75-0.125-1.572-0.397-3.618-0.607-4.547-0.485-2.146-0.942-9.848-2.232-37.59-0.22-4.714-0.528-10.02-0.687-11.78-0.159-1.767-0.469-7.553-0.691-12.86s-0.563-12.7-0.758-16.43c-0.196-3.732-0.507-9.678-0.692-13.21-0.185-3.536-0.504-8.678-0.708-11.43-0.205-2.75-0.512-6.928-0.683-9.285s-0.499-6.857-0.728-10c-0.436-5.965-2.657-27.75-3.894-38.21-0.396-3.339-1.045-9.606-1.444-13.93-0.399-4.321-0.88-8.66-1.067-9.642-0.364-1.902-0.652-4.215-1.38-11.07-0.25-2.357-0.753-6.374-1.118-8.928-1.885-13.19-2.436-29.28-1.003-29.28 0.871 0 0.926-0.284 0.284-1.489-0.436-0.82-0.607-1.677-0.38-1.905s0.413-0.188 0.413 0.089c0 0.278 0.445 0.09 0.989-0.416 0.691-0.643 0.788-1.305 0.322-2.188-0.475-0.9-0.35-1.587 0.43-2.373 0.605-0.608 1.1-1.529 1.1-2.048 0-1.343 3.289-1.997 5.164-1.028 1.306 0.676 1.428 0.654 0.696-0.125-1.329-1.414-1.196-3.234 0.153-2.107 0.573 0.478 1.452 0.703 1.953 0.501 0.573-0.232 0.45-0.39-0.331-0.425-0.684-0.031-1.243-0.378-1.243-0.771 0-1.102 2.56-0.844 3.551 0.357 1.076 1.304 2.601 1.393 3.064 0.179 0.228-0.598 0.73-0.362 1.52 0.714 0.649 0.884 1.651 1.607 2.227 1.607s1.231 0.481 1.455 1.068 0.667 0.905 0.985 0.707c0.319-0.198 1.004 0.046 1.524 0.542s2.703 1.705 4.852 2.685c2.149 0.981 4.013 2.025 4.144 2.319 0.131 0.295 0.77 0.536 1.423 0.536 0.652 0 3.422 1.082 6.156 2.404 2.733 1.322 6.164 2.792 7.623 3.266 1.46 0.474 2.837 1.16 3.061 1.525 0.224 0.364 0.859 0.662 1.411 0.662s2.691 0.754 4.753 1.677c2.061 0.922 5.027 2.082 6.589 2.576 1.563 0.495 4.28 1.543 6.038 2.329 4.519 2.02 7.109 3.145 9.767 4.242 1.269 0.524 2.308 1.185 2.308 1.47 0 0.284 0.455 0.342 1.011 0.127 0.555-0.214 1.648 0.251 2.426 1.035 0.779 0.783 1.609 1.231 1.844 0.994 0.235-0.236 2.739 0.646 5.564 1.96 9.321 4.334 12.22 5.637 14.19 6.385 1.075 0.407 1.954 1.09 1.954 1.519 0 0.456 0.592 0.591 1.424 0.326 0.945-0.302 1.567-0.079 1.85 0.662 0.234 0.614 0.726 0.93 1.093 0.702s1.053-0.121 1.524 0.238 2.375 1.217 4.231 1.906c1.855 0.69 3.374 1.568 3.374 1.951 0 0.384 0.306 0.507 0.681 0.274 0.615-0.382 1.843 0.081 5.001 1.884 0.586 0.335 1.864 0.955 2.841 1.378s2.681 1.224 3.787 1.78 2.474 1.011 3.041 1.011c0.566 0 1.206 0.462 1.422 1.026 0.215 0.565 0.801 0.869 1.301 0.676s2.472 0.551 4.381 1.655c1.909 1.103 3.79 2.012 4.181 2.02s2.788 1.011 5.327 2.23 5.308 2.429 6.151 2.689c0.844 0.26 1.922 0.943 2.396 1.517s1.468 1.044 2.209 1.044 2.613 0.803 4.161 1.785c1.547 0.982 3.249 1.786 3.782 1.786s1.548 0.643 2.255 1.428c0.707 0.786 1.636 1.431 2.064 1.433 0.427 0 1.577 0.425 2.553 0.939 0.977 0.514 4.733 2.492 8.346 4.395 3.614 1.903 6.571 3.75 6.571 4.103s0.264 0.478 0.587 0.278c0.323-0.201 2.001 0.376 3.729 1.282 9.19 4.817 11.74 6.311 12.51 7.318 0.462 0.61 1.159 0.911 1.547 0.669 0.389-0.241 2.135 0.53 3.88 1.714 1.745 1.185 3.526 2.154 3.957 2.154 0.432 0 0.785 0.261 0.785 0.581 0 0.319 2.736 2.007 6.079 3.749 3.343 1.743 6.665 3.712 7.382 4.376 0.718 0.664 1.502 1.009 1.743 0.766 0.648-0.651 3.065 2.198 2.728 3.216-0.159 0.481 0.535 1.189 1.544 1.574 1.008 0.386 1.833 1.045 1.833 1.466 0 1.893 3.518 4.27 6.319 4.27 1.557 0 3.029 0.322 3.271 0.715 0.241 0.393 0 0.714-0.533 0.714-0.535 0-1.592 0.466-2.351 1.036-1.302 0.98-1.261 1.029 0.753 0.893 1.382-0.093 2.068 0.17 1.953 0.749-0.097 0.491 0.191 0.893 0.643 0.893 0.491 0 0.348 0.525-0.355 1.306-0.647 0.719-1.176 1.518-1.176 1.777 0 0.422 5.661-2.433 9.077-4.579 1.051-0.66 1.864-0.577 3.903 0.396 1.416 0.676 2.868 1.047 3.226 0.824 1.248-0.775 3.059 2.25 3.099 5.174 0.023 1.597 0.242 2.865 0.489 2.818 1.32-0.251 3.013 1.081 2.108 1.658-1.443 0.919-2.21 0.742-1.77-0.409 0.264-0.692 0.052-0.904-0.635-0.638-0.566 0.218-1.029 1.3-1.029 2.405 0 1.104-0.181 2.596-0.404 3.316-0.261 0.845-0.059 0.731 0.569-0.321 0.536-0.896 1.197-1.405 1.47-1.131s0.496-0.037 0.496-0.692 0.479-1.19 1.065-1.19c1.291 0 1.415 1.168 0.178 1.67-0.7 0.283-0.696 0.372 0.02 0.416 3.101 0.194-13.8 16.48-17.11 16.48-0.163 0-4.518 2.411-9.677 5.357s-9.756 5.359-10.22 5.362c-0.461 0-1.797 0.65-2.969 1.44s-3.889 2.275-6.038 3.301c-15.84 7.562-20.46 9.763-22.02 10.49-0.977 0.457-1.936 1.025-2.131 1.262-0.196 0.237-1.634 1.003-3.197 1.701-2.758 1.232-11.03 5.367-24.15 12.07-3.516 1.797-6.779 3.595-7.251 3.996-0.472 0.402-1.332 0.73-1.911 0.73-0.58 0-1.231 0.289-1.449 0.643-0.217 0.353-2.873 1.918-5.902 3.476-3.028 1.559-7.658 3.986-10.29 5.394s-7.903 4.224-11.72 6.259c-3.817 2.034-7.429 4.124-8.026 4.645-0.598 0.521-2.037 1.363-3.198 1.871-1.912 0.838-15.61 8.565-22.19 12.52-1.458 0.876-3.131 1.815-3.717 2.087s-2.926 1.725-5.2 3.229c-2.274 1.503-4.305 2.733-4.514 2.733-0.208 0-1.754 0.933-3.434 2.074-1.68 1.14-3.725 2.287-4.543 2.548s-1.487 0.774-1.487 1.141c0 0.366-0.35 0.666-0.778 0.666s-1.627 0.599-2.664 1.332c-1.761 1.246-4.13 2.589-16.8 9.526-16.38 8.969-24.86 12.05-29.66 10.79zm13.41-27.54c2.185-1.277 5.456-3.184 7.269-4.238 1.814-1.054 3.857-1.938 4.54-1.964 0.684-0.026 1.243-0.332 1.243-0.68s2.273-2.036 5.05-3.75c2.778-1.714 6.693-4.132 8.699-5.372 2.007-1.24 3.89-2.105 4.184-1.922s0.535-0.016 0.535-0.441c0-0.426 0.799-1.08 1.776-1.453 0.977-0.374 1.776-0.987 1.776-1.363s0.719-0.91 1.598-1.187c0.879-0.276 2.516-1.274 3.637-2.217 1.122-0.943 3.052-2.14 4.29-2.66s2.73-1.392 3.316-1.938c1.083-1.009 2.896-2.14 6.66-4.154 1.154-0.618 2.535-1.525 3.069-2.016s1.428-0.893 1.986-0.893 1.015-0.311 1.015-0.692c0-0.38 0.532-0.486 1.182-0.235 0.755 0.291 1.009 0.175 0.703-0.324-0.488-0.792 3.186-3.034 4.972-3.034 0.526 0 0.956-0.316 0.956-0.701s0.776-0.896 1.725-1.136c0.948-0.239 1.897-0.888 2.108-1.442s1.034-1.007 1.827-1.007c0.794 0 1.443-0.321 1.443-0.714s0.48-0.714 1.066-0.714 1.065-0.356 1.065-0.791 0.476-0.607 1.057-0.383c0.604 0.233 0.984 0.044 0.888-0.442-0.093-0.468 0.55-0.96 1.429-1.095s1.598-0.535 1.598-0.889c0-0.353 2.477-1.849 5.505-3.323s5.93-3.093 6.45-3.599 1.239-0.737 1.598-0.513c0.359 0.223 0.653 0.095 0.653-0.284 0-0.786 9.128-5.433 10.48-5.333 0.489 0.036 0.899-0.301 0.911-0.748 0.02-0.447 1.052-1.322 2.309-1.943s8.998-4.591 17.2-8.823c8.204-4.231 15.55-7.817 16.33-7.97 0.78-0.152 1.526-0.601 1.658-0.998 0.131-0.397 1.19-0.721 2.352-0.721 1.223 0 1.93-0.3 1.677-0.711-0.241-0.392 0.3-1.022 1.201-1.403 3.778-1.593 7.018-2.823 7.398-2.807 0.224 8e-3 0.847-0.568 1.385-1.281 0.538-0.714 0.989-1.07 1.001-0.792 0.024 0.522 7.877-3.015 9.439-4.252 0.486-0.385 1.77-0.913 2.855-1.173 1.084-0.261 2.632-1.138 3.439-1.95 0.867-0.872 2.023-1.331 2.823-1.12 0.746 0.196 1.355 0.08 1.355-0.258s1.199-1.174 2.664-1.859c1.465-0.684 2.919-1.664 3.232-2.176 0.312-0.512 1.031-0.931 1.598-0.931 0.566 0 1.03-0.292 1.03-0.648 0-0.373-0.984-0.343-2.322 0.07-2.13 0.657-2.551 0.504-5.111-1.853-1.534-1.413-3.157-2.569-3.607-2.569s-3.664-1.808-7.142-4.017c-3.478-2.21-8.673-5.251-11.54-6.758-2.872-1.507-5.589-3.038-6.038-3.403s-4.493-2.586-8.985-4.935c-4.493-2.348-10.41-5.491-13.14-6.984s-6.41-3.464-8.168-4.381-3.676-1.98-4.262-2.362-2.184-1.178-3.552-1.769c-1.367-0.591-2.965-1.352-3.551-1.691s-2.504-1.285-4.262-2.103-7.352-3.471-12.43-5.897c-5.079-2.426-10.99-5.202-13.14-6.17s-4.386-2.052-4.972-2.409c-2.132-1.299-12.48-6.221-14.21-6.758-0.977-0.304-1.936-0.762-2.131-1.019-0.196-0.258-2.433-1.39-4.973-2.517-8.69-3.857-13.85-6.222-19.53-8.949-3.125-1.5-7.6-3.6-9.944-4.667-2.344-1.066-7.177-3.349-10.74-5.072-3.563-1.724-6.762-3.134-7.108-3.134s-3.504-1.443-7.017-3.206c-3.513-1.764-6.716-3.21-7.118-3.214-0.401-6e-3 -2.638-1.022-4.972-2.261-6.682-3.547-12.38-6.318-13-6.318-0.666 0-0.588 4.801 0.107 6.607 1.18 3.066 1.207 3.551 0.171 3.151-0.694-0.268-0.907-0.06-0.644 0.631 0.216 0.567 0.68 0.853 1.03 0.635 0.349-0.217 0.676 0.508 0.726 1.612 0.139 3.064 0.369 4.832 0.914 7.018 0.333 1.332 0.19 2.192-0.431 2.587-0.71 0.453-0.654 0.595 0.239 0.604 0.734 8e-3 1.169 0.608 1.171 1.618 0 2.363 1.224 10.18 1.589 10.18 0.07 0 0.203 0.964 0.293 2.143 0.091 1.178 0.42 4.231 0.734 6.785 0.314 2.553 0.606 5.847 0.649 7.32 0.042 1.473 0.323 2.678 0.623 2.678 0.299 0 0.512 0.885 0.475 1.965-0.075 2.138 0.393 6.755 1.793 17.68 0.201 1.571 0.687 6.392 1.08 10.71 1.67 18.37 2.12 23.97 2.5 31.07 0.179 3.339 0.499 7.357 0.712 8.928 0.355 2.611 0.902 13.19 1.441 27.86 0.2 5.405 0.599 12.56 1.37 24.55 0.187 2.906 0.48 5.426 0.652 5.599 0.171 0.172 0.044 1.254-0.283 2.403-0.328 1.149-0.325 2.089 0 2.089 0.332 0 0.62 1.848 0.641 4.107 0.071 7.526 0.798 20.33 1.192 20.97 0.554 0.901 0.616 0.88 5.01-1.688zm-21.26 25.44c-0.25-0.251-0.293-0.719-0.095-1.04 0.443-0.721 2.445-0.017 2.445 0.859 0 0.733-1.672 0.861-2.349 0.181zm229.3-146c-0.241-0.392 0.041-0.714 0.627-0.714s1.263 0.322 1.504 0.714c0.241 0.393-0.04 0.715-0.626 0.715s-1.263-0.322-1.505-0.715z"/>
      <path id="head" d="m519.8 132.1c-50.88 2.302-101.5 16.19-145.4 42.29-39.39 23.6-72.04 58.42-92.74 99.43-10.15 20.2-17.04 42.04-20.05 64.46-4.373 30.93-1.969 62.54 4.885 92.94 5.514 26.7 11.96 53.59 24.35 78.06 13.26 25.64 32.95 47.41 54.78 66.07 44.1 37.18 100.3 59.54 157.7 63.66 1.831 0.262-0.154-0.446-0.866-0.61-1.275-0.417-2.551-0.831-3.802-1.315 6.669-0.335 13.44 0.814 20.02-0.675 0.636-1.172-0.327-2.776-1.634-2.859 2.765-2.363 6.622-1.102 9.877-1.879 21.06-1.465 42.5-1.538 62.95-7.445 45.6-10.94 88.52-34.48 120.6-68.9 29.96-32.24 48.46-74.51 53.34-118.1 5.874-46.55-0.807-94.22-16.52-138.3-13.21-36.71-33.66-71.27-62.02-98.32-35.8-34.45-81.94-58.32-131-66.46-11.38-1.739-22.93-2.586-34.44-2.04zm-6.36 25.53c48 1.274 95.77 17.18 134.1 46.25 28.5 22.03 51.73 50.78 67.55 83.12 11.4 24.78 16.2 51.94 19.4 78.84 2.624 22.82 1.166 46.1-4.422 68.39-5.112 20.92-13.21 41.11-23.9 59.8-5.744 9.351-11.98 18.42-18.85 26.98-6.81 7.869-14.42 14.99-21.54 22.57-6.512 6.69-13.1 13.42-20.92 18.6-11.03 7.857-21.73 16.25-33.51 22.98-7.74 4.293-15.28 8.945-23.2 12.92-9.632 4.891-19.93 8.684-30.7 10.03-34.53 5.206-69.9 1.122-103.4-8.15-20.04-5.647-39.58-13.35-57.66-23.72-28.3-16.45-53.23-38.65-72.99-64.73-9.585-12.79-18.03-26.59-23.73-41.56-7.798-21.2-9.733-44.1-8.867-66.54 1.271-29.44 8.162-58.45 18.55-85.95 15.42-40.2 40.29-77 73.17-105 27.49-23.62 60.1-41.57 95.26-50.69 11.65-2.818 23.63-4.27 35.62-4.174zm-181.7 75.11c-21.32 28.44-38.41 60.24-48.9 94.26-1.014 0.421-1.841-1.314-0.898-1.86 3.027-18.57 11.24-35.73 19.49-52.46 5.804-9.891 12.66-19.11 19.44-28.34 3.963-5.078 8.266-9.897 12.94-14.33-0.691 0.912-1.382 1.824-2.073 2.736zm395.8 257.6c-8.584 20.77-21.76 39.47-37.62 55.32 14.62-17.88 27.77-37.04 38.43-57.55-0.269 0.746-0.539 1.492-0.809 2.238zm-42.69 59.41c1.376 0.644-1.106 2.481-1.195 0.92 0.147-0.487 0.637-1.039 1.195-0.92z" stroke-width="1.008"/>
      <circle id="head-clickzone" cx="512" cy="384" r="256" fill="transparent"/>
    </g>
  </g>
</svg>
