<svg version="1.1" viewBox="0 0 512 512" xmlns="http://www.w3.org/2000/svg">
 <path d="m29.71 186c15.75-50.82 47.89-96.33 88.22-130.7 67.31-55.76 165.8-68.57 245.2-32.29 83.39 35.46 141.9 121.8 142.2 212.7 1.374 52.33-17.14 103.3-46.07 146.4-44.44 86.67-144.9 138.9-241.4 127.7-82.79-7.039-159.8-60.27-194.2-136.2-5.775-13.4-13.85-33.52-14.63-44.28 5.458 14.77-6.411-26.4-4.673-35.17 4.012 19.3-1.152-30.39 2.382-6.041 2.327 8.832 4.464 18.87 6.404 24.65 1.449 9.412 7.553 21.39 9.548 29.12 4.302 13.44 11.02 22.93 17.02 34.58 3.234 6.108 11.21 17.52 14.55 22.34 5.169 5.13 7.075 10.93 11.91 13.98 4.888 8.3 12.79 13.25 19.94 21.31 8.606 7.686 18.73 15.67 30.04 22.98 14.21 9.886 33.54 19.09 46.89 24.68 8.095 2.051 17.12 7.14 26.97 7.7 4.27 3.334 12.77 3.361 15.97 4.589 7.185 1.274 16.1 0.812 24.37 3.421 3.097-0.8282 14.55-1.403 18.84 0.1173 6.046-1.46 18.24-2.02 23.29-2.199 8.961-2.708 16.56-1.624 25.26-5.386 1.386 0.9412 14.61-3.476 21.7-6.123 8.198-2.404 11.83-3.879 19.31-7.785 9.494-3.581 19.47-9.237 26.88-12.98 3.317-3.073 10.36-7.868 15.62-11.37 4.154-2.946 15.94-11.9-0.5803-3.172-43.83 23.23-94.52 33.38-144 31.7-84.19-4.766-162.9-59.48-196-137-22.15-48.9-25.8-105.6-11.08-157.2zm-22.91 119.4c2.566 7.359-1.867-10.43 0 0zm0.8704 5.306c1.716 4.263-1.366-7.407 0 0zm0.6438 3.49c2.66-0.0748-1.725-2.892 0 0zm50.02-145.4c-6.377 19.88-9.758 39.16-10.62 60.58-3.15 56.93 17.8 113.5 53.72 157.4 6.346 6.311 14.2 14.93 22.38 21.41 2.974 3.435 11.61 8.95 16.48 12.96 6.017 4.878 13.4 7.196 21.14 13.66 7.819 3.323 18.45 8.433 25.17 11.35 7.369 2.588 24.18 7.684 32.02 9.774 11.4 1.627 22.59 5.131 34.79 4.067 9.057 2.89 23.23 0.525 35.06-0.2536 15.97-1.286 34.81-7.476 47.96-12.14 11.44-6.106 24.49-11.19 35.96-20.34 6.364-3.307 14.11-9.981 18.89-13.52 8.84-8.214 16.48-14.51 24.05-24.72 8.161-7.598 14.09-17.7 20.87-26.33 3.811-9.546 11.17-19.66 15.48-31.69 3.648-8.257 8.474-18.43 8.987-26.13 4.386-9.857 5.067-20.86 7.517-31.59 2.96-23.8 2.185-46.8-2.919-70.75-8.934-38.01-27.9-75.67-56.91-102.5-23-24.97-54.93-44.59-87.68-55.98-10.11-3.833-20.91-6.299-29.07-7.582-10.34-3.065-19.27-2.007-26.75-3.591-3.976 0.03037-16-0.3851-17.99 0.07289-2.524-0.3847-11.25 0.5506-16.29 1.082-7.383 0.4004-14.61 1.783-20.71 3.111-6.822 1.593-12.64 2.506-19.76 4.801-6.73 1.446-13.11 5.305-19.62 6.349-8.378 4.793-20.08 9.238-27.1 14.32-4.983 2.495-9.701 6.357-12.5 7.694-5.809 4.326-7.734 5.698-14.38 10.56-7.649 7.035-21.15 20.38-28.99 31.27-6.781 9.058-10.83 18.07-17.16 28.07-4.43 10.26-8.25 19.55-11.83 27.31-1.581-0.6276 0.1226 1.654-0.1948 1.203zm118.9-122.4c2.93-0.0038-3.506 1.327 0 0zm-164.7 293.4c4.059 14.54-2.191-10.21 0 0zm2.681 9.171c1.182-1.753-2.984-5.252 0 0zm2.554 6.371c-0.9856-6.39-3.852-7.468 0 0zm3.266 7.927c-1.51-4.967-3.294-5.493 0 0zm1.578 4.158c2.477-0.1052-1.771-2.154 0 0zm1.951 4.905c3.528 4.427-3.189-5.901 0 0zm9.04 17.04c2.028 2.899-2.042-4.954 0 0zm226.3-370.2c1.35-2.08-0.7548-1.444 0 0zm5.268 0.6445c45.57 3.042 92.76 19.11 126.8 49.14 3.826 2.325 11.43 9.569 16.21 14.13 23.31 20.91 42.07 47.74 55.75 76.03-10.13-14.16 8.616 13.27 2.209 8.099 3.904 11.32 13.09 33.11 4.297 9.353-6.342-20.2 9.189 19.84 9.265 25.51 3.482 9.485 9.267 53.1 4.667 26.37-0.4586-11.57-14.3-56.51-5.258-22 3.992 12.07 5.784 41.89 7.394 42.93 2.891 1.681 1.731-23.63 0.4228-35.44-2.55-16.83-5.551-32.49-11.75-49.01-2.591-10.43-9.435-22.24-13.34-31.09-6.041-11.09-14.63-24.22-23.24-34.48-7.056-9.822-16.45-17.02-24.95-26.94-9.655-6.409-17.94-14.52-26.25-19.47-7.235-3.745-15.11-9.655-22.05-11.94-6.356-5.23-9.735-3.403-16.5-8.215-13.75-3.663-23.18-8.327-36.57-9.853-11.2-3.287-18.96-2.512-28.94-4.377-1.375 0.7772-25.28-1.166-18.19 1.269zm221.5 221.9c1.739 4.025-1.917 3.02 0 0zm-200.3-217.8c1.366-0.7589-3.613-0.4497 0 0zm33.96 8.306c2.595-0.9734-2.781-0.9344 0 0zm11.59 3.964c2.674-0.979-2.666-1.777 0 0zm3.546 1.018c1.366-0.7589-3.613-0.4496 0 0zm3.094 1.761c2.735-1.276-2.948-1.233 0 0zm11.86 4.498c1.366-0.7589-3.614-0.4496 0 0zm15.04 8.293c1.366-0.7589-3.614-0.4496 0 0zm4.454 2.723c0.0114-2.133-5.377-2.137 0 0zm4.079 2.45c-0.2627-1.705-3.374-1.598 0 0zm4.807 3.506c2.823 0.2312-4.175-3.073 0 0zm2.043 1.502c3.423 0.3939-2.831-2.393 0 0zm4.504 2.989c-0.3086-2.57-4.107-1.421 0 0zm-120.2 431.4c1.366-0.759-3.613-0.4496 0 0zm124.6-428.2c-0.775-2.655-5.571-3.876 0 0zm5.563 4.153c-0.6986-2.093-2.484-1.501 0 0zm-106.4 433c2.538-0.8401-0.673-2.119 0 0zm27.52-19.53c2.05-1.474-3.849 0.8995 0 0zm29.3-41.86c2.05-1.474-3.849 0.8995 0 0zm-2.808 31.24c5.204-2.544 3.235-2.71 0 0zm41.93-10.83c2.787-2.03-0.6531-1.868 0 0zm7.011-21.14c7.924-0.7169-2.436-1.732 0 0zm51.09-37.29c2.434-1.916-0.3223-2.58 0 0zm43.18-146.7c1.436 5.067 0.3477-11.66 0 0zm-481.6 33.12c2.051 1.393-2.64 0.8999 0 0zm2.514 29.83c2.012 4.234-0.3717 3.399 0 0zm1.242 4.034c1.771 2.154-2.477 0.1052 0 0z" fill="#000000" stroke-width=".6437"/>
</svg>
