<svg version="1.1" viewBox="0 0 512 512" xmlns="http://www.w3.org/2000/svg">
    <path d="m272.9 2.438c-77.73 0.7021-154.5 36.11-205.3 94.94-38.96 44.82-62.81 103-64.63 162.5-1.22 38.35 5.691 77.29 22.48 111.9 13.7 27.76 34.03 51.75 56.82 72.48 38.54 34.6 87.47 57.8 138.9 64.54 21.54 1.824 43.05-1.374 64.44-3.506 2.343-0.2841 4.687-0.5682 7.03-0.8524-7.573-0.2084-15.13 0.5136-22.69 0.8223 34.87-3.051 69.85-9.121 102.4-22.38 46.89-19.18 85.37-56.46 108.8-101.1 21-39.85 30.23-85.48 28.09-130.4-2.095-53.69-18.97-107.1-50.07-151.1-24.37-34.72-57.59-63.71-96.64-80.69-28.18-12.14-59.03-17.55-89.65-17.23zm2.367 17.4c42.15 1.271 84.21 14.35 118.6 38.95 34.25 24.63 60.56 59.15 78.63 97.03 15.65 32.65 23.57 68.99 22.73 105.2-0.2585 21.83-1.774 43.81-7.007 65.07-3.651 14.63-9.222 28.78-16.4 42.04 27.75-66.96 25.95-145.1-3.461-211.2-19.18-41.36-52.06-75.86-91.52-98.46-39.38-22.96-84.69-35.14-130.2-36.71 2.05-0.7293 4.295-0.4972 6.423-0.8853 7.359-0.7259 14.76-1.049 22.15-0.9916zm-32.35 1.68c1.402 0.5235-0.8494 2.509-1.162 1.014-0.0129-0.5958 0.5848-1.082 1.162-1.014zm4.5 20.19c54.68 0.744 109.2 19.93 151.4 54.87 17.1 14.88 33.18 31.19 45.96 49.99 11.64 18.19 19.54 38.5 25.54 59.16 5.746 21.51 7.734 43.82 8.632 66 0.562 20.82-1.956 41.76-8.023 61.7-11.36 38.54-33 73.76-61.09 102.4-18.42 18.14-42.07 30.21-66.69 37.51-27.38 8.084-56.15 11.05-84.64 9.898-16.12-0.6346-32.19-3.032-47.68-7.564-30.64-8.834-59.18-24.79-82.96-46.01-17.21-15.43-31.55-33.9-42.92-54-15.65-27.48-26.29-57.78-31.64-88.94-6.122-36.49-4.197-74.61 7.727-109.8 12.16-36.36 34.76-69.36 65.13-92.9 34.26-26.89 77.5-42.74 121.2-42.36zm-196 111.3c-3.721 11.33-8.392 22.38-10.82 34.1-10.87 44.36-8.087 91.35 4.184 135.1 11.29 40.67 30.95 79.51 59.86 110.5 5.792 6.213 11.99 12.04 18.45 17.56-19.54-11.87-36.49-27.4-52.84-43.24-23.09-24.66-37.86-56.24-45.32-88.98-10.56-46.22-6.085-95.73 12.7-139.3 3.742-8.998 7.713-18.15 13.8-25.8zm437.6 141.3c0.4592 0.3551-0.2683-0.0148 0 0zm-18.92 72.85c-0.4998-0.2677-0.2663-0.1452 0 0z" fill="#000000" stroke-width=".6458"/>
</svg>
