<svg version="1.1" viewBox="0 0 512 512" xmlns="http://www.w3.org/2000/svg">
    <path d="m246.7 510.1c-101.7-11.53-197-82.76-232.9-179.6-46.01-145.3 67.2-313.3 217.5-328.8 90.71-11.02 183.8 35.27 231.2 113.4 57.9 71 66.08 179.1 15.47 256.1-29.03 46.68-71.93 85.39-119.7 110.6 17.27 18.43-26.19 17.56-46.29 24.82-21.34 4.421-43.53 4.077-65.22 3.454zm19.83-24.93c20.05-0.1312 44.82-5.597 61.1-10.59 53.57-20.85-20.18 0.835-43.26-0.263-80.24 6.033-158.9-29.93-212.5-89.09 47.12 56.57 119.1 102 194.6 99.95zm23.03-34.21c72.95-4.319 149.8-39.51 180.5-110 28.08-53.77 23.57-118.7-2.286-172.2-22.43-59.87-81.14-97.28-141.1-111.3-49.07-12.38-104.9-14.59-154.6 0.95-21.57 5.924-47.94 19.58-67.54 34.76-48.18 33.7-69.61 95.58-77.43 152.2 1.435 70.65 56.04 125.3 108.9 165.3 44.58 31.43 99.45 44.24 153.6 40.2zm60.14-407.1c-47.47-22.78-103.8-25.87-154.2-11.12 51.78-6.289 105.4-3.679 155.4 12.16z" fill="#000000" stroke-width=".6408"/>
</svg>
