<svg version="1.1" viewBox="0 0 512 512" xmlns="http://www.w3.org/2000/svg">
    <path d="m265.8 6.1c-50.48 2.283-100.7 16.06-144.3 41.96-39.08 23.41-71.47 57.96-92.01 98.65-10.07 20.04-16.91 41.71-19.89 63.95-4.339 30.69-1.953 62.05 4.846 92.2 5.471 26.49 11.86 53.17 24.16 77.44 13.15 25.44 32.69 47.04 54.34 65.54 43.75 36.88 99.46 59.07 156.5 63.16 1.817 0.26-0.153-0.4422-0.8594-0.6055-1.264-0.4135-2.53-0.8241-3.772-1.304 6.616-0.332 13.33 0.8077 19.87-0.6699 0.6303-1.162-0.3251-2.754-1.621-2.836 2.743-2.344 6.57-1.094 9.798-1.864 20.9-1.454 42.17-1.526 62.45-7.386 45.24-10.85 87.82-34.21 119.6-68.35 29.72-31.98 48.08-73.92 52.92-117.2 5.828-46.19-0.8005-93.47-16.39-137.2-13.1-36.42-33.39-70.71-61.53-97.54-35.52-34.18-81.29-57.86-130-65.94-11.29-1.725-22.75-2.566-34.16-2.024zm-6.311 25.33c47.62 1.263 95.02 17.05 133.1 45.88 28.27 21.86 51.32 50.38 67.02 82.46 11.31 24.59 16.07 51.52 19.25 78.22 2.604 22.64 1.157 45.74-4.387 67.85-5.071 20.75-13.1 40.79-23.72 59.32-5.7 9.277-11.89 18.27-18.7 26.77-6.756 7.807-14.3 14.87-21.37 22.39-6.461 6.638-13 13.32-20.76 18.46-10.95 7.794-21.55 16.12-33.25 22.8-7.679 4.258-15.16 8.874-23.01 12.82-9.556 4.853-19.77 8.616-30.45 9.95-34.25 5.164-69.35 1.113-102.6-8.086-19.88-5.603-39.27-13.24-57.21-23.54-28.07-16.32-52.81-38.34-72.41-64.22-9.509-12.69-17.89-26.38-23.54-41.24-7.737-21.03-9.656-43.76-8.797-66.01 1.26-29.2 8.098-57.99 18.4-85.27 15.29-39.88 39.98-76.4 72.59-104.1 27.27-23.43 59.63-41.24 94.51-50.29 11.55-2.796 23.44-4.236 35.34-4.14zm-180.2 74.52c-21.15 28.22-38.1 59.77-48.51 93.52-1.006 0.4174-1.826-1.304-0.8906-1.846 3.003-18.43 11.16-35.45 19.34-52.05 5.758-9.814 12.56-18.96 19.29-28.12 3.932-5.038 8.201-9.818 12.84-14.22-0.6855 0.905-1.371 1.81-2.057 2.715zm392.7 255.6c-8.516 20.6-21.58 39.16-37.33 54.88 14.51-17.74 27.55-36.75 38.13-57.1-0.2676 0.7402-0.5352 1.48-0.8027 2.221zm-42.35 58.94c1.365 0.6386-1.097 2.461-1.186 0.9121 0.1462-0.4826 0.6318-1.031 1.186-0.9121z" fill="#000000" stroke-width=".6915"/>
</svg>