<svg class="icon-edit" version="1.1" viewBox="0 0 512 512" xmlns="http://www.w3.org/2000/svg">
    <path d="m154 508c2.759-1.576-6.014-4.73-4.725-5.095-4.259-2.399 0.5749-4.423-3.702-5.866-0.9792-7.511-16.35-13.29-18.15-26.44-24.64-46.15-54.54-89.67-82.04-134.4-9.118-16.64-27.04-33.01-24.8-52.19 3.828 1.643 7.049-1.721 13.7-2.878-0.4059-3.092 2.404-15.01 21.02-16.81 14.66-4.057 26.1-8.06 41.24-13.33 14.45-4.212 28.72-9.985 42.12-13.73 11.97-4.28 26.79-8.885 40.53-13.88-5.401 17.86-27.89 34.2-51.46 37.82-28.53 8.841-56.75 20.69-87.1 23.02-0.827-3.884-13.99-2.758-3.386 4.538 6.766 8.863 10.61 13.88 17.33 22.05 6.812 10.38 14.92 19.64 21.24 30.71 11.17 15.33 20.47 31.72 31.16 47 10.58 16.73 23.05 35.99 31.87 54.77 8.62 12.06 19.21 32.45 19.71 42.42 7.287-1.136 14.86-6.036 21.76-8.999 38.05-13.98 74.63-31.52 112.4-46.23 40.16-17.27 80.81-34.5 122.5-49.08-2.958-14.77-24.25-33.64-33.35-50.41-16.48-26.21-38.13-49.46-57.62-73.63 7.448-16.82 17.77-19.2 26.94-2.545 11.7 12.72 22.24 24.99 31.35 38.87 6.585 8.685 15.18 19.65 23.13 32.28 9.305 13.15 18.36 27.2 28.7 40.06 0.8764 5.794 21.62 24.03 18.56 29.3-0.0764 2.4-2.01 10.97-14.33 3.475 10.44 11-13.15-9.932-17.93 4.257-79.88 33.39-160.4 65.6-240.7 97.94-8.439 2.015-17.56 7.682-25.96 7.018zm2.379-133.7c-6.017 2.184-7.469-21.63-10.3-7.314-4.124-19.51 5.901-41.11 10.45-60.8 5.489-16.04 3.649-31.53 15.82-44.22 18.74-25.39 37.27-50.44 57.42-74.95 27.17-35.22 56.87-68.86 86.16-102.4 15.94-16.95 31.18-34.09 48.26-49.8 11.33-9.758 21.34-23.27 33.41-26.35 6.845-2.999 20.3-3.967 28.33-2.663 10.87-0.5787 33.04 7.99 34.88 23.18 6.682 13.2 9.888 18.03 15.99 29.24-0.7729 5.612 7.49-1.266 1.814 6.175 5.283 2.078-4.131 14.87-11.76 20.03-20.38 15.81-34.75 37.26-53.3 54.93-51.23 55.28-100.5 111.9-151.8 167.1-25.06 25.61-57.66 44.23-89.03 62.77-3.925 1.396-13.65 6.684-16.34 5.034zm19.82-32.85c11.01-6.702 19.42-15.02 31.72-22.7 16.82-8.586-18.24-19.31-19.08-29.67-4.68 16.45-12.74 38.88-12.64 52.37zm64.04-46.83c35.8-40.14 69.5-81.93 106.4-121.1 13.67-16.24 29.63-32.66 44.14-49.04 18.68-19.4 37.29-39.04 54.72-59.07-3.866-16.64-12.99-45.17-39.11-37.15-10.26 17.46-29.48 30.66-42.97 46.6-55.96 59.68-107.8 122.4-156.8 186.6-4.932 10.88 21.52 36.93 33.63 33.15zm209.6-282.6c-3.192-4.868 4.237 1.846 0 0z"/>
</svg>
