<svg class="icon-exit" version="1.1" viewBox="0 0 512 512" xmlns="http://www.w3.org/2000/svg">
    <path d="m396.2 508.4c-20.35-1.357-0.275-47 1.15-71.52 21.55-115 40.93-230.8 71.68-343.6-48.45-12.68-97.64-32.71-147.8-44.22-8.548 39.17-13.39 82.8-19.83 113.1l-31.78-12.45c7.589-61.75 12.86-48.78 16.57-106-33.31-0.2432-79.9-2.876-118.8 3.797-18.94 51.4-23.01 133.5-27.59 184.8-9.22 1.291-17.25 3.069-27.39 7.825 9.918-99.12 11.52-172.7 27.52-222.7 60.11-9.234 113.7-9.001 170.8-3.643 58.61 23.98 125 30.91 180.7 59.87 1.748 17 2.125 49.22-8.229 77.66-27.25 117.6-44.82 237.6-72.9 354.8-4.968-0.4646-9.002 8.969-14.09 2.232zm93.55-427.9c-2.535-4.737-0.2577 6.642 0 0zm-381.5 212.2c12.09-6.26 19.62-7.818 29.56-7.486-3.918 48.93-6.632 107.3-0.6578 152.5 45.1-2.866 79.13-11.69 108-19.52 5.698-30.79 4.336-48.64 8.162-80.61 9.192-6.14 20.77-8.303 34.72-8.064 3.8 36.53-2.031 76.57-4.422 113.2-42.28 9.746-139.3 36.04-187.9 41.21-3.638-73.33 5.484-125.3 12.49-191.3zm-78.82 46.75c-17.08-2.556-12.58-26.21 2.957-39.64 82.74-81.41 213.1-85.29 318-52.6-27.82-28.73-103.4-42.54-89.65-78.31 3.202-12.45 45.17 8.039 58.89 20.21 32.38 28.75 65.2 43.17 102.7 88.29-1.498 9.043-4.473 19.12-7.387 26.55-35.12-6.269-186.8 43.22-206.3 8.943 2.304-10.01 11.74-18.81 36-22.8 30.07-13.18 111.7-18.05 33.92-26.75-86.61-11.07-187.8 4.23-245.3 77.33l-3.903-1.241zm231.7-60.88c11.21-22.98 49.84-5.07 2.614 0.0513l-1.938 1.397zm27.06-49.28c-63.45-5.025 8.118-32.28 0 0z" fill="#000000" stroke-width=".7736"/>
</svg>
