<svg version="1.1" viewBox="0 0 512 512" xmlns="http://www.w3.org/2000/svg">
    <path d="m438.5 504.1c-18.56 2.48-36.69-50.61-54.62-72.31-38.57-47.48-72.21-94.87-119-149.5-82.32 49.07-160.1 112.2-247.3 148.9-17.96-12.09-12.21-24.17-0.9363-28.97 3.691-6.381-1.687-30.03-6.242-37.89-0.4588-11.25 20.72-22.98 32.49-33.39 58.11-42.38 118.9-78.88 179.3-116.4-41.21-56.32-88.49-106.2-131-160.9 3.356-17.27 3.613-20.64 18.06-19.72 26.1 36.6 15.52 4.059 25-0.6127 27.37 12.14 40.8 35.54 59.61 55.63 27.69 29.59 50.48 61.71 78 95.2 48.79-24.49 131.7-71.8 179.5-91.78 7.312 26.81 24.89 3.281 44.04 9.598 9.331 16.04-0.9082 21.64-0.3262 30.94 5.376 31.85-42.81 35.65-63.05 52.54-36 19.58-72.29 38.03-107.1 60.54 36.58 57.75 96.64 100.6 120.5 167-4.23 17.57-9.446 9-15.09 19.18-0.2959 21.68 34.32 70.71 5.004 65.02-0.8459 0.2898 7.827 9.168 3.053 6.832z" fill="#000000" stroke-width=".792"/>
</svg>
