<svg class="icon-listen" version="1.1" viewBox="0 0 512 512" xmlns="http://www.w3.org/2000/svg">
    <path d="m342 412.8c-3.297 4.576-6.804 9.767-10.59 12.68-2.474 2.064-6.549 6.19-10.38 8.402-8.682 5.091-19.62 10.08-28.57 12.49-8.26 3.131-17.92 5.413-27.28 6.564-15.9 2.829-31.64 2.93-47.54 2.317-12.46-2.031-24.91-5.07-36.09-9.623-19.98-7.724-36.42-22.75-50.25-39.66-4.941-9.368-12.56-16.89-14.84-28.75-4.035-11.83-0.1055-30.66 8.461-35.85 8.793-4.844 9.322 15.02 10.69 23.94 10.77 32.7 39.04 56.45 69.86 64.36 26.97 7.16 55.76 3.374 82.82-3.249 17.68-5.329 41.19-14.49 42.91-37.8-2.431-23.12-24.5-34.58-33.5-54.12-9.874-18.21 9.556-33.07 22.44-41.15 32.9-21.69 69.89-45.98 82.74-87.93 7.929-31.31-10.95-60.19-29.45-81.36-25.79-28.59-64.43-41.76-101.4-38.69-35.83 1.868-69.34 22.43-95.34 48.91-32.06 35.82-48.75 85.37-49.55 134.3-1.774 14.4 1.703 34.04 0.6122 45.25 3.161 11.8-3.455-1.5-1.851 7.438-3.952-2.467-6.814-8.951-3.458-0.9583-8.305-6.139-8.394-16.8-11.46-26.05-0.4842-6.16-1.272-11.6-1.759-18.74-1.615-12.59-0.3151-24.36 0.3603-36.52 3.072-23.69 8.392-48.46 19.31-69.21 6.582-15.32 16.31-30.56 26.99-42.98 5.808-8.523 16.03-18.45 24.71-25.84 11.8-9.763 26.14-18.55 39.7-24.78 9.651-4.291 19.26-7.794 29.02-10.48 24.76-3.964 49.95-4.557 74.14 2.66 19.29 5.381 37.94 14.99 53.35 28.55 13.05 11.88 24.28 26.99 33.78 42.9 3.096 7.894 9.579 17.93 10.89 28.28 2.692 8.903 2.998 18.05 3.13 27.51-1.434 11.64-4.545 24.29-10.45 34.6-3.711 7.807-7.281 12.86-11.62 19.56-6.85 8.488-12.68 16.01-20.62 23.48-9.494 8.121-18.77 16.72-29.6 23.39-12.19 9.263-25.54 16.64-37.22 26.7 2.296 12.11 15.02 20.07 21.44 30.71 6.55 7.136 9.801 18.66 12.75 25.94-0.3016 5.586 0.5576 12.43-1.248 18.47-2.16 4.773-3.263 10.68-6.013 14.39zm-210-63.65c-0.5753-3.875-0.8377 6.12 0 0zm-13.99-35.2c-1.785-3.27 1.69 5.121 0 0zm252.9-102c-2.785 3.329-7.342 9.518-12.78 13.05-5.357 6.028-9.828 8.594-16.97 13.09-7.515 3.284-14.84 8.659-24.37 10.46-7.087 5.572-16.43 7.161-24.63 12.26-5.386 3.647-7.878 2.648-12.29 6.263-11.22 3.841-22.22 1.037-31.24-5.728-5.914-4.804-10.88-7.017-16.04-12.15-4.554-3.748-8.064-9.226-10.06-14.15-3.075-3.893-2.706-6.342-5.068-11.9-0.3735-7.597-1.121-15.19 0.4994-18.93 2.789-5.771 4.556-12.56 7.492-13 3.073-6.593 10.84-8.789 17.17-12.27 17.93-7.402 38.35-12.84 57.55-12.38 9.181-2.177 25.79-1.54 34.18 3.669 1.182 4.319-2.169 2.093 2.692 5.135-1.062-0.671-7.487 7.738-8.506 7.887 5.36 4.482-19.19 3.674-25.32 4.145-21.63 0.9071-43.82 4.823-63.11 16.59-11.48 13.8 3.933 32.01 14.08 39.71 12.33 16.43 29.2 2.061 43.15-4.136 22.52-11.04 51.11-17.53 63.86-43.17 5.592-23.28-12-43.28-30.49-51-18.83-10.55-40.47-18.55-62.06-11.88-29.93 6.847-57.73 27.47-72.52 57.04-8.77 17.97 9.803 31.01 18.61 43.29 11.08 14.14 22.68 28.29 30.64 44.78 5.852 22-23.84 12.76-34.76 12.76-6.286-1.404-1.307 5.691-7.447 3.099 1.036 1.265-7.247 4.043-10.79 7.591-17.26 14.6 13.89 33.28 26.07 38.91 9.384 4.911 16.91 6.84 26.4 8.935 3.954 0.8948 12.82 5.047 13.52-5.448-1.756-6.102-3.582-11.81-5.538-17.46-2.36-9.398 4.282-18.9 6.999-24.54 4.959-7.89 11.4-18.35 19.58-26.28 10.48-8.63 23.88-15.31 36.94-17.57-4.132 2.277 15.1-2.503 4.025 6.229-6.417 4.63-13.85 10.34-2.277 2.838-6.945 7.824-29.71 22.75-39.23 37.76-11.18 9.809-13.52 29.35-15.76 39.13-4.529 7.732-16.2 17.47-28.86 14.77-1.971 0.591 20.19-0.0168 5.175 1.806-28.52 1.827-56.95-16.41-69.59-43.64-4.544-18.12 13.26-31.37 27.9-33.12 6.74-4.024 31.31 1.341 27.94-6.919-8.136-13.79-19.18-25.22-27.79-38.58-4.185-1.556-8.722-10.38-13.12-15.38-3.877-8.65-9.641-20.61-5.979-31.18 1.444-7.232 6.744-18.85 12.77-26.49 4.907-5.086 9.54-11.43 14.67-16.71 4.979-4.287 9.311-9.465 15.57-12.26 7.508-7.605 16.47-9.733 24.75-14.17 8.674-4.286 17.79-5.464 26.77-7.529 9.863-1.577 14.08-1.497 23.42-0.4793 8.624 1.582 12.43 2.593 19.99 5.384 8.039 1.901 12.65 6.029 19.59 8.919 6.611 2.408 12.9 7.533 17.82 10.67 2.316 3.084 7.834 6.42 8.692 8.772 4.492 5.366 5.744 7.202 8.652 13.09 5.401 9.311 7.039 22.27 5.492 31.94 0.3503 6.844-4.729 14.48-6.068 18.48zm-62.23 61.33c-7.08 4.245 3.337-0.3512 0 0zm-8.46 5.89c-2.512 0.9434-0.0226 2.137 0 0zm31.19-108.7c-3.199 0.9821 4.505 0.6993 0 0zm-100.5 188.8c-2.063 1.196 3.613-0.4019 0 0zm-12.74-139.4c-2.259-0.2093 1.303 2.35 0 0zm104.4 43.41c-1.662-1.633 2.518-0.5546 0 0zm-65.59 84.73c-1.21-0.9471 3.113-1.611 0 0zm-40.59-134.6c-1.663-1.633 2.518-0.5548 0 0zm3.858-15.45c-3.799 2.416 2.762-3.033 0 0z" fill="#000000" stroke-width=".6147"/>
</svg>
