<svg class="icon-add" version="1.1" viewBox="0 0 512 512" xmlns="http://www.w3.org/2000/svg">
    <path d="m248.6 440.7c-14.26-8.908-8.032-28.77-12.2-43.81 0.9028-11.5-4.625-29.47-0.954-40.02-3.369-15.26-2.408-33.54-2.288-50.5 5.315-28.86-26.4-14.25-42.14-21.58-10.04 4.547-26.03-1.767-37.17 1.182-15.82-3.024-33.1-3.094-49.95-4.1-15.33 0.8062-20.67-9.563-31.15-15.46 4.737-7.78 1.993-17.98 14.54-18.63 7.331-9.872 31.93 0.6458 43.85-2.551 22.34 0.8 44.67 1.063 66.97 0.9532 13.48-0.5645 39.79 8.186 33.54-15.47-0.1709-17.78-1.944-35.47-1.362-53.94-1.247-25.87-1.076-51.89-0.1142-77.56 5.905-0.7708 0.5391-16.46 6.413-6.665 0.0394-7.06 9.186-6.685 11.56-13.21-0.2167 5.851 11.03 0.6029 12.05 6.887 14.7-2.027 16.61 24.04 16.13 34.85-2.481 11.58 1.381 36.38-2.38 43.29 4.448 10.61 0.2877 18.53 2.953 28.72 1.379 16.05-9.295 42.95 5.373 53.94 19.31 2.536 39.77 0.2121 59.51 0.0553 22.01 0.2209 43.48-3.075 65.28-2.218 8.796-3.82 23.87 9.332 22.97 2.969 11.32 3.223 23.79 8.437 16.13 17.14 14.1 4.061-7.875 12.69-8.051 11.06-7.004 8.174-10.51 4.51-13.54 4.168-3.089 2.408-11.42 2.097-10.26 4.874-17.71-1.043-26.03 1.719-42.75 0.7854-14.95 0.5892-31.29 3.792-45.2 0.7547-3.173 4.581-12.85-4.97-9.378 3.558-12.64-1.986-39.47-6.279-40.71 9.37-0.3946 15.45 0.384 31.41-0.0344 46.8 1.383 17.12-0.3786 34.65-1.604 51.98 1.692 11.37-4.725 14.61-11.04 19.35 1.622 16.2-8.348 19.01-15.01 23.04z"/>
</svg>
