<svg class="icon-check" version="1.1" viewBox="0 0 512 512" xmlns="http://www.w3.org/2000/svg">
    <path d="m151.4 441.3c-28.1-31.55-40.04-79.03-70.32-111.1-14.93-18.53-53.62-58.33-35.76-69.66 6.78 3.223 16.93-20.6 15.85-14.78 3.448-13.67 18.7-20.3 22.59-15.33 7.803 12.92 16.76 2.196 23.36 23.69 14.51 32.38 32.63 62.94 46.17 95.67 39.38-36.94 74.55-77.89 114.9-113.6 54.18-52.37 114.1-99.6 176.8-140.2 21.86-13.37 19.96 24.3 37.47 4.148 45.71-11.52-17.04 43.91-35.15 60.54-98.42 87.71-208 167.1-280.8 280.5-8.39-4.006-8.849-0.1494-15.1 0.2227zm-103.4-182.7c-0.6486-4.823 3.734 3.797 0 0z"/>
</svg>
