<svg class="icon-user" version="1.1" viewBox="0 0 512 512" xmlns="http://www.w3.org/2000/svg">
  <path d="m424.8 475.1c-9.576-9.195-19.54-16.92-29.15-26.26-7.632-3.751-15.1-12.98-23.68-16.48-6.048-4.176-13.49-8.813-20.01-13.32-6.274-4.207-11.22-8.774-16.88-11.69-4.34-3.728-11.29-8.369-14.14-11.67-4.326-5-14.2-10.93-18.62-16.44-4.938-12.43 2.729-28.22 12.03-34.89 2.787-2.792 5.335-6.918 10.16-12.01 4.335-6.334 9.493-13.38 14.19-20.24 4.909-6.071 8.725-13.89 13.94-20.73 3.753-5.842 6.987-12.82 10.05-17.84 3.803-7.473 7.515-16.16 11.77-23.78 2.249-7.698 4.581-13.54 7.074-23.8 3.123-8.648 4.272-18.65 6.391-29.41 0.045-8.115 0.9353-18.51-0.6712-25.51-1.137-9.523-4.078-18.35-7.505-27.18-5.452-6.793-10.39-14.49-16.16-20.62-5.788-6.318-12.98-11.68-17.68-15.84-7.144-4.455-15.7-9.923-22.65-12.75-14.07-7.123-29.87-10.19-46.09-12.22-9.256-0.3257-19.97 0.134-28.67 0.7254-7.741 1.284-20.32 3.351-26.29 6.081-8.013 3.235-19.11 7.046-27.16 12.99-6.549 2.53-12.81 8.289-18.04 13.14-5.887 4.417-13.38 14.42-16.45 18.49-6.382 6.859-9.732 15.34-13.59 24.5-4.126 8.741-5.65 16.29-8.199 25.7-2.874 8.328-2.136 12.65-3.261 21.45 0.017 12 1.02 23.77 5.171 35.24 2.15 6.807 4.929 13.44 6.899 20.99 1.333-0.5568 3.378 10.02 6.004 13.43 2.805 8.61 5.789 12.93 8.747 20.83 5.76 9.085 7.24 12.63 12.01 21.4 5.142 9.648 9.706 20.99 19.7 26.32 6.406 5.709 7.9 18.14 6.782 25.24 1.268 3.963-5.085 13.29-10.34 18.64-0.4118 6.369-12.54 9.629-19 13.67-14.89 6.575-29.5 14.6-43.31 21.69-15.12 7.878-29.83 16.48-45.94 22.18 9.496-5.809-16.27 4.196-12.1-6.787 6.986-7.045 18.68-17.1 25.71-19.39 7.714-6.049 15.29-10.75 24.26-14.22 5.384-4.345 9.794-5.973 16.15-9.784 13.7-5.914 26.98-12.46 40.97-18.22 4.721-5.071 10.64-17.21 1.233-27.28-7.304-5.745-13.81-15.56-19.22-24.75-5.485-6.893-7.944-15.23-13.23-21.4-10.28-19.68-18.91-41.4-26.24-62.93-7.538-25.93-4.149-54.34 5.353-79.54 11.03-37.5 40.77-68.71 76.59-84.34 21.07-9.071 44.31-13.45 67.28-13.16 13.74 0.5542 30.32 1.855 44.08 6.415 18.13 5.318 34.51 13.9 49.4 25.66 7.675 5.28 12.99 13.92 17.7 17.81 5.196 4.995 11.5 12.47 15.84 21.52 8.136 12.84 10.67 27.33 11.33 41.68 2.473 32.37-7.36 64.11-19.7 93.45-12.32 23.26-25.56 45.63-41.2 66.78-5.192 6.668-12.23 16.41-18.27 24.27-8.166 6.021-8.422 9.322 0.1945 14.56 7.878 6.86 16.92 11.92 23.64 18.39 11.89 7.273 22.94 16.02 34.58 24 8.632 5.701 21.97 15.17 30.39 24.75 9.061 9.783 12.27 13.28 13.14 19.12 2.876 5.648 4.049 12.05-4.598 12.47l-0.7501 0.9087z"/>
</svg>
