<svg id="svg5" version="1.1" viewBox="0 0 512 512" xmlns="http://www.w3.org/2000/svg">
  <g id="layer4" display="none">
    <path id="path1255" d="m154 508c2.759-1.576-6.014-4.73-4.725-5.095-4.259-2.399 0.5749-4.423-3.702-5.866-0.9792-7.511-16.35-13.29-18.15-26.44-24.64-46.15-54.54-89.67-82.04-134.4-9.118-16.64-27.04-33.01-24.8-52.19 3.828 1.643 7.049-1.721 13.7-2.878-0.4059-3.092 2.404-15.01 21.02-16.81 14.66-4.057 26.1-8.06 41.24-13.33 14.45-4.212 28.72-9.985 42.12-13.73 11.97-4.28 26.79-8.885 40.53-13.88-5.401 17.86-27.89 34.2-51.46 37.82-28.53 8.841-56.75 20.69-87.1 23.02-0.827-3.884-13.99-2.758-3.386 4.538 6.766 8.863 10.61 13.88 17.33 22.05 6.812 10.38 14.92 19.64 21.24 30.71 11.17 15.33 20.47 31.72 31.16 47 10.58 16.73 23.05 35.99 31.87 54.77 8.62 12.06 19.21 32.45 19.71 42.42 7.287-1.136 14.86-6.036 21.76-8.999 38.05-13.98 74.63-31.52 112.4-46.23 40.16-17.27 80.81-34.5 122.5-49.08-2.958-14.77-24.25-33.64-33.35-50.41-16.48-26.21-38.13-49.46-57.62-73.63 7.448-16.82 17.77-19.2 26.94-2.545 11.7 12.72 22.24 24.99 31.35 38.87 6.585 8.685 15.18 19.65 23.13 32.28 9.305 13.15 18.36 27.2 28.7 40.06 0.8764 5.794 21.62 24.03 18.56 29.3-0.0764 2.4-2.01 10.97-14.33 3.475 10.44 11-13.15-9.932-17.93 4.257-79.88 33.39-160.4 65.6-240.7 97.94-8.439 2.015-17.56 7.682-25.96 7.018zm2.379-133.7c-6.017 2.184-7.469-21.63-10.3-7.314-4.124-19.51 5.901-41.11 10.45-60.8 5.489-16.04 3.649-31.53 15.82-44.22 18.74-25.39 37.27-50.44 57.42-74.95 27.17-35.22 56.87-68.86 86.16-102.4 15.94-16.95 31.18-34.09 48.26-49.8 11.33-9.758 21.34-23.27 33.41-26.35 6.845-2.999 20.3-3.967 28.33-2.663 10.87-0.5787 33.04 7.99 34.88 23.18 6.682 13.2 9.888 18.03 15.99 29.24-0.7729 5.612 7.49-1.266 1.814 6.175 5.283 2.078-4.131 14.87-11.76 20.03-20.38 15.81-34.75 37.26-53.3 54.93-51.23 55.28-100.5 111.9-151.8 167.1-25.06 25.61-57.66 44.23-89.03 62.77-3.925 1.396-13.65 6.684-16.34 5.034zm19.82-32.85c11.01-6.702 19.42-15.02 31.72-22.7 16.82-8.586-18.24-19.31-19.08-29.67-4.68 16.45-12.74 38.88-12.64 52.37zm64.04-46.83c35.8-40.14 69.5-81.93 106.4-121.1 13.67-16.24 29.63-32.66 44.14-49.04 18.68-19.4 37.29-39.04 54.72-59.07-3.866-16.64-12.99-45.17-39.11-37.15-10.26 17.46-29.48 30.66-42.97 46.6-55.96 59.68-107.8 122.4-156.8 186.6-4.932 10.88 21.52 36.93 33.63 33.15zm209.6-282.6c-3.192-4.868 4.237 1.846 0 0z" fill="#000000" stroke-width=".7509"/>
  </g>
  <g id="layer5" display="none">
    <path id="path1413" d="m151.4 441.3c-28.1-31.55-40.04-79.03-70.32-111.1-14.93-18.53-53.62-58.33-35.76-69.66 6.78 3.223 16.93-20.6 15.85-14.78 3.448-13.67 18.7-20.3 22.59-15.33 7.803 12.92 16.76 2.196 23.36 23.69 14.51 32.38 32.63 62.94 46.17 95.67 39.38-36.94 74.55-77.89 114.9-113.6 54.18-52.37 114.1-99.6 176.8-140.2 21.86-13.37 19.96 24.3 37.47 4.148 45.71-11.52-17.04 43.91-35.15 60.54-98.42 87.71-208 167.1-280.8 280.5-8.39-4.006-8.849-0.1494-15.1 0.2227zm-103.4-182.7c-0.6486-4.823 3.734 3.797 0 0z" fill="#000000" stroke-width=".6868"/>
  </g>
  <g id="layer6" display="none">
    <path id="path1433" d="m438.5 504.1c-18.56 2.48-36.69-50.61-54.62-72.31-38.57-47.48-72.21-94.87-119-149.5-82.32 49.07-160.1 112.2-247.3 148.9-17.96-12.09-12.21-24.17-0.9363-28.97 3.691-6.381-1.687-30.03-6.242-37.89-0.4588-11.25 20.72-22.98 32.49-33.39 58.11-42.38 118.9-78.88 179.3-116.4-41.21-56.32-88.49-106.2-131-160.9 3.356-17.27 3.613-20.64 18.06-19.72 26.1 36.6 15.52 4.059 25-0.6127 27.37 12.14 40.8 35.54 59.61 55.63 27.69 29.59 50.48 61.71 78 95.2 48.79-24.49 131.7-71.8 179.5-91.78 7.312 26.81 24.89 3.281 44.04 9.598 9.331 16.04-0.9082 21.64-0.3262 30.94 5.376 31.85-42.81 35.65-63.05 52.54-36 19.58-72.29 38.03-107.1 60.54 36.58 57.75 96.64 100.6 120.5 167-4.23 17.57-9.446 9-15.09 19.18-0.2959 21.68 34.32 70.71 5.004 65.02-0.8459 0.2898 7.827 9.168 3.053 6.832z" fill="#000000" stroke-width=".792"/>
  </g>
  <g id="layer7" display="none">
    <path id="path1453" d="m396.2 508.4c-20.35-1.357-0.275-47 1.15-71.52 21.55-115 40.93-230.8 71.68-343.6-48.45-12.68-97.64-32.71-147.8-44.22-8.548 39.17-13.39 82.8-19.83 113.1l-31.78-12.45c7.589-61.75 12.86-48.78 16.57-106-33.31-0.2432-79.9-2.876-118.8 3.797-18.94 51.4-23.01 133.5-27.59 184.8-9.22 1.291-17.25 3.069-27.39 7.825 9.918-99.12 11.52-172.7 27.52-222.7 60.11-9.234 113.7-9.001 170.8-3.643 58.61 23.98 125 30.91 180.7 59.87 1.748 17 2.125 49.22-8.229 77.66-27.25 117.6-44.82 237.6-72.9 354.8-4.968-0.4646-9.002 8.969-14.09 2.232zm93.55-427.9c-2.535-4.737-0.2577 6.642 0 0zm-381.5 212.2c12.09-6.26 19.62-7.818 29.56-7.486-3.918 48.93-6.632 107.3-0.6578 152.5 45.1-2.866 79.13-11.69 108-19.52 5.698-30.79 4.336-48.64 8.162-80.61 9.192-6.14 20.77-8.303 34.72-8.064 3.8 36.53-2.031 76.57-4.422 113.2-42.28 9.746-139.3 36.04-187.9 41.21-3.638-73.33 5.484-125.3 12.49-191.3zm-78.82 46.75c-17.08-2.556-12.58-26.21 2.957-39.64 82.74-81.41 213.1-85.29 318-52.6-27.82-28.73-103.4-42.54-89.65-78.31 3.202-12.45 45.17 8.039 58.89 20.21 32.38 28.75 65.2 43.17 102.7 88.29-1.498 9.043-4.473 19.12-7.387 26.55-35.12-6.269-186.8 43.22-206.3 8.943 2.304-10.01 11.74-18.81 36-22.8 30.07-13.18 111.7-18.05 33.92-26.75-86.61-11.07-187.8 4.23-245.3 77.33l-3.903-1.241zm231.7-60.88c11.21-22.98 49.84-5.07 2.614 0.0513l-1.938 1.397zm27.06-49.28c-63.45-5.025 8.118-32.28 0 0z" fill="#000000" stroke-width=".7736"/>
  </g>
  <g id="layer8">
    <path id="path1971" d="m342 412.8c-3.297 4.576-6.804 9.767-10.59 12.68-2.474 2.064-6.549 6.19-10.38 8.402-8.682 5.091-19.62 10.08-28.57 12.49-8.26 3.131-17.92 5.413-27.28 6.564-15.9 2.829-31.64 2.93-47.54 2.317-12.46-2.031-24.91-5.07-36.09-9.623-19.98-7.724-36.42-22.75-50.25-39.66-4.941-9.368-12.56-16.89-14.84-28.75-4.035-11.83-0.1055-30.66 8.461-35.85 8.793-4.844 9.322 15.02 10.69 23.94 10.77 32.7 39.04 56.45 69.86 64.36 26.97 7.16 55.76 3.374 82.82-3.249 17.68-5.329 41.19-14.49 42.91-37.8-2.431-23.12-24.5-34.58-33.5-54.12-9.874-18.21 9.556-33.07 22.44-41.15 32.9-21.69 69.89-45.98 82.74-87.93 7.929-31.31-10.95-60.19-29.45-81.36-25.79-28.59-64.43-41.76-101.4-38.69-35.83 1.868-69.34 22.43-95.34 48.91-32.06 35.82-48.75 85.37-49.55 134.3-1.774 14.4 1.703 34.04 0.6122 45.25 3.161 11.8-3.455-1.5-1.851 7.438-3.952-2.467-6.814-8.951-3.458-0.9583-8.305-6.139-8.394-16.8-11.46-26.05-0.4842-6.16-1.272-11.6-1.759-18.74-1.615-12.59-0.3151-24.36 0.3603-36.52 3.072-23.69 8.392-48.46 19.31-69.21 6.582-15.32 16.31-30.56 26.99-42.98 5.808-8.523 16.03-18.45 24.71-25.84 11.8-9.763 26.14-18.55 39.7-24.78 9.651-4.291 19.26-7.794 29.02-10.48 24.76-3.964 49.95-4.557 74.14 2.66 19.29 5.381 37.94 14.99 53.35 28.55 13.05 11.88 24.28 26.99 33.78 42.9 3.096 7.894 9.579 17.93 10.89 28.28 2.692 8.903 2.998 18.05 3.13 27.51-1.434 11.64-4.545 24.29-10.45 34.6-3.711 7.807-7.281 12.86-11.62 19.56-6.85 8.488-12.68 16.01-20.62 23.48-9.494 8.121-18.77 16.72-29.6 23.39-12.19 9.263-25.54 16.64-37.22 26.7 2.296 12.11 15.02 20.07 21.44 30.71 6.55 7.136 9.801 18.66 12.75 25.94-0.3016 5.586 0.5576 12.43-1.248 18.47-2.16 4.773-3.263 10.68-6.013 14.39zm-210-63.65c-0.5753-3.875-0.8377 6.12 0 0zm-13.99-35.2c-1.785-3.27 1.69 5.121 0 0zm252.9-102c-2.785 3.329-7.342 9.518-12.78 13.05-5.357 6.028-9.828 8.594-16.97 13.09-7.515 3.284-14.84 8.659-24.37 10.46-7.087 5.572-16.43 7.161-24.63 12.26-5.386 3.647-7.878 2.648-12.29 6.263-11.22 3.841-22.22 1.037-31.24-5.728-5.914-4.804-10.88-7.017-16.04-12.15-4.554-3.748-8.064-9.226-10.06-14.15-3.075-3.893-2.706-6.342-5.068-11.9-0.3735-7.597-1.121-15.19 0.4994-18.93 2.789-5.771 4.556-12.56 7.492-13 3.073-6.593 10.84-8.789 17.17-12.27 17.93-7.402 38.35-12.84 57.55-12.38 9.181-2.177 25.79-1.54 34.18 3.669 1.182 4.319-2.169 2.093 2.692 5.135-1.062-0.671-7.487 7.738-8.506 7.887 5.36 4.482-19.19 3.674-25.32 4.145-21.63 0.9071-43.82 4.823-63.11 16.59-11.48 13.8 3.933 32.01 14.08 39.71 12.33 16.43 29.2 2.061 43.15-4.136 22.52-11.04 51.11-17.53 63.86-43.17 5.592-23.28-12-43.28-30.49-51-18.83-10.55-40.47-18.55-62.06-11.88-29.93 6.847-57.73 27.47-72.52 57.04-8.77 17.97 9.803 31.01 18.61 43.29 11.08 14.14 22.68 28.29 30.64 44.78 5.852 22-23.84 12.76-34.76 12.76-6.286-1.404-1.307 5.691-7.447 3.099 1.036 1.265-7.247 4.043-10.79 7.591-17.26 14.6 13.89 33.28 26.07 38.91 9.384 4.911 16.91 6.84 26.4 8.935 3.954 0.8948 12.82 5.047 13.52-5.448-1.756-6.102-3.582-11.81-5.538-17.46-2.36-9.398 4.282-18.9 6.999-24.54 4.959-7.89 11.4-18.35 19.58-26.28 10.48-8.63 23.88-15.31 36.94-17.57-4.132 2.277 15.1-2.503 4.025 6.229-6.417 4.63-13.85 10.34-2.277 2.838-6.945 7.824-29.71 22.75-39.23 37.76-11.18 9.809-13.52 29.35-15.76 39.13-4.529 7.732-16.2 17.47-28.86 14.77-1.971 0.591 20.19-0.0168 5.175 1.806-28.52 1.827-56.95-16.41-69.59-43.64-4.544-18.12 13.26-31.37 27.9-33.12 6.74-4.024 31.31 1.341 27.94-6.919-8.136-13.79-19.18-25.22-27.79-38.58-4.185-1.556-8.722-10.38-13.12-15.38-3.877-8.65-9.641-20.61-5.979-31.18 1.444-7.232 6.744-18.85 12.77-26.49 4.907-5.086 9.54-11.43 14.67-16.71 4.979-4.287 9.311-9.465 15.57-12.26 7.508-7.605 16.47-9.733 24.75-14.17 8.674-4.286 17.79-5.464 26.77-7.529 9.863-1.577 14.08-1.497 23.42-0.4793 8.624 1.582 12.43 2.593 19.99 5.384 8.039 1.901 12.65 6.029 19.59 8.919 6.611 2.408 12.9 7.533 17.82 10.67 2.316 3.084 7.834 6.42 8.692 8.772 4.492 5.366 5.744 7.202 8.652 13.09 5.401 9.311 7.039 22.27 5.492 31.94 0.3503 6.844-4.729 14.48-6.068 18.48zm-62.23 61.33c-7.08 4.245 3.337-0.3512 0 0zm-8.46 5.89c-2.512 0.9434-0.0226 2.137 0 0zm31.19-108.7c-3.199 0.9821 4.505 0.6993 0 0zm-100.5 188.8c-2.063 1.196 3.613-0.4019 0 0zm-12.74-139.4c-2.259-0.2093 1.303 2.35 0 0zm104.4 43.41c-1.662-1.633 2.518-0.5546 0 0zm-65.59 84.73c-1.21-0.9471 3.113-1.611 0 0zm-40.59-134.6c-1.663-1.633 2.518-0.5548 0 0zm3.858-15.45c-3.799 2.416 2.762-3.033 0 0z" fill="#000000" stroke-width=".6147"/>
  </g>
</svg>
